<svg width="16" height="16" viewBox="0 0 16 16" fill="none" xmlns="http://www.w3.org/2000/svg">
<g clip-path="url(#clip0_1300_7126)">
<path d="M15.3337 2.66603H13.3336V0.666016H12.0003V2.66603L10.0003 2.66603V3.99937L12.0003 3.99937V5.99935L13.3336 5.99935V3.99937L15.3337 3.99937V2.66603Z" fill="#212529"/>
<path d="M8.00033 2.03227C7.78105 2.0105 7.55866 1.99935 7.33366 1.99935C3.65176 1.99935 0.666992 4.98412 0.666992 8.66602C0.666992 12.3479 3.65176 15.3327 7.33366 15.3327C11.0156 15.3327 14.0003 12.3479 14.0003 8.66602H12.667C12.667 11.6115 10.2792 13.9993 7.33366 13.9993C4.38814 13.9993 2.00033 11.6115 2.00033 8.66602C2.00033 5.7205 4.38814 3.33268 7.33366 3.33268C7.55943 3.33268 7.78193 3.34671 8.00033 3.37394V2.03227Z" fill="#212529"/>
<path d="M5.33366 8.33268C5.88594 8.33268 6.33366 7.88497 6.33366 7.33268C6.33366 6.7804 5.88594 6.33268 5.33366 6.33268C4.78137 6.33268 4.33366 6.7804 4.33366 7.33268C4.33366 7.88497 4.78137 8.33268 5.33366 8.33268Z" fill="#212529"/>
<path d="M9.69038 9.66601C8.38863 10.9678 6.27808 10.9678 4.97634 9.66601L4.03353 10.6088C5.85598 12.4313 8.81074 12.4313 10.6332 10.6088L9.69038 9.66601Z" fill="#212529"/>
<path d="M10.3337 7.33268C10.3337 7.88497 9.88594 8.33268 9.33366 8.33268C8.78137 8.33268 8.33366 7.88497 8.33366 7.33268C8.33366 6.7804 8.78137 6.33268 9.33366 6.33268C9.88594 6.33268 10.3337 6.7804 10.3337 7.33268Z" fill="#212529"/>
</g>
<defs>
<clipPath id="clip0_1300_7126">
<rect width="16" height="16" fill="white"/>
</clipPath>
</defs>
</svg>
