<svg width="14" height="14" viewBox="0 0 14 14" fill="none" xmlns="http://www.w3.org/2000/svg">
<path d="M3.96068 12.6053C3.58607 12.7188 3.20817 12.4385 3.20817 12.047V11.0833H1.74984C1.42767 11.0833 1.1665 10.8222 1.1665 10.5V2.33333C1.1665 2.01117 1.42767 1.75 1.74984 1.75H12.2498C12.572 1.75 12.8332 2.01117 12.8332 2.33333V7.14816C12.4707 6.89517 12.0763 6.70781 11.6665 6.58606V2.91667H2.33317V9.91667H4.37484V11.2607L6.41893 10.6413C6.4324 11.0325 6.50179 11.4222 6.62711 11.7973L3.96068 12.6053Z" fill="#ADB5BD"/>
<path fill-rule="evenodd" clip-rule="evenodd" d="M12.5989 8.47494C12.6836 8.56263 12.7617 8.65432 12.8332 8.74939C13.6927 9.892 13.6024 11.5223 12.5622 12.5624C11.4232 13.7014 9.57647 13.7014 8.43744 12.5624C8.11544 12.2404 7.88446 11.8618 7.74452 11.4587C7.6133 11.0807 7.56212 10.681 7.59097 10.2862C7.6402 9.61251 7.92235 8.9527 8.43744 8.43761C9.31048 7.56457 10.5993 7.36069 11.6665 7.82598C11.9917 7.96774 12.2962 8.17162 12.5622 8.43761C12.5746 8.44997 12.5868 8.46241 12.5989 8.47494ZM12.1498 10.0625H8.84993V10.9375H12.1498V10.0625Z" fill="#ADB5BD"/>
<path d="M7.148 7V8.16667H3.49984V7H7.148Z" fill="#ADB5BD"/>
<path d="M10.4998 4.66667H3.49984V5.83333H10.4998V4.66667Z" fill="#ADB5BD"/>
</svg>
