<svg width="16" height="16" viewBox="0 0 16 16" fill="none" xmlns="http://www.w3.org/2000/svg">
<g clip-path="url(#clip0_1424_5157)">
<path d="M13.3333 7.33317C13.3333 7.79822 13.2857 8.25214 13.1951 8.69034L12.357 9.52842L11.7573 8.92866C11.915 8.42488 12 7.88895 12 7.33317C12 4.38765 9.61218 1.99984 6.66667 1.99984C3.72115 1.99984 1.33333 4.38765 1.33333 7.33317C1.33333 10.2787 3.72115 12.6665 6.66667 12.6665C7.58338 12.6665 8.44607 12.4352 9.19957 12.0278L9.52859 12.3568L8.02384 13.8616C7.58564 13.9522 7.13171 13.9998 6.66667 13.9998C2.98477 13.9998 0 11.0151 0 7.33317C0 3.65127 2.98477 0.666504 6.66667 0.666504C10.3486 0.666504 13.3333 3.65127 13.3333 7.33317Z" fill="#212529"/>
<path d="M12.8284 11.8855L14.7141 9.99984L15.6569 10.9427L13.7712 12.8283L15.6569 14.7139L14.714 15.6567L12.8284 13.7711L10.9428 15.6567L10 14.7139L11.8856 12.8283L10 10.9426L10.9428 9.99984L12.8284 11.8855Z" fill="#212529"/>
<path d="M9.02339 8.33317C7.72164 9.63492 5.61109 9.63492 4.30934 8.33317L3.36654 9.27598C5.18898 11.0984 8.14375 11.0984 9.9662 9.27598L9.02339 8.33317Z" fill="#212529"/>
<path d="M4.66667 6.99984C5.21895 6.99984 5.66667 6.55212 5.66667 5.99984C5.66667 5.44755 5.21895 4.99984 4.66667 4.99984C4.11438 4.99984 3.66667 5.44755 3.66667 5.99984C3.66667 6.55212 4.11438 6.99984 4.66667 6.99984Z" fill="#212529"/>
<path d="M9.66667 5.99984C9.66667 6.55212 9.21895 6.99984 8.66667 6.99984C8.11438 6.99984 7.66667 6.55212 7.66667 5.99984C7.66667 5.44755 8.11438 4.99984 8.66667 4.99984C9.21895 4.99984 9.66667 5.44755 9.66667 5.99984Z" fill="#212529"/>
</g>
<defs>
<clipPath id="clip0_1424_5157">
<rect width="16" height="16" fill="white"/>
</clipPath>
</defs>
</svg>
