<svg width="14" height="14" viewBox="0 0 14 14" fill="none" xmlns="http://www.w3.org/2000/svg">
<path fill-rule="evenodd" clip-rule="evenodd" d="M10.5 4.08334C10.5 6.01634 8.93302 7.58334 7.00002 7.58334C5.06702 7.58334 3.50002 6.01634 3.50002 4.08334C3.50002 2.15035 5.06702 0.583344 7.00002 0.583344C8.93302 0.583344 10.5 2.15035 10.5 4.08334ZM9.33335 4.08334C9.33335 5.37201 8.28869 6.41668 7.00002 6.41668C5.71136 6.41668 4.66669 5.37201 4.66669 4.08334C4.66669 2.79468 5.71136 1.75001 7.00002 1.75001C8.28869 1.75001 9.33335 2.79468 9.33335 4.08334Z" fill="#FF3366"/>
<path d="M1.16669 11.0833C1.16669 9.47251 2.47252 8.16668 4.08335 8.16668H9.91669C11.5275 8.16668 12.8334 9.47251 12.8334 11.0833V12.8333H11.6667V11.0833C11.6667 10.1168 10.8832 9.33334 9.91669 9.33334H4.08335C3.11686 9.33334 2.33335 10.1168 2.33335 11.0833V12.8333H1.16669V11.0833Z" fill="#FF3366"/>
</svg>
