<svg width="19" height="28" viewBox="0 0 19 28" fill="none" xmlns="http://www.w3.org/2000/svg">
<path d="M9.37035 20.5352C7.93726 20.5352 6.77562 19.3775 6.77562 17.9443V17.6528C6.77562 15.2495 8.25661 13.1177 10.5559 12.2274C11.7655 11.7563 12.5559 10.6106 12.52 9.36899C12.4761 7.83598 11.0709 6.50657 9.45418 6.46665C8.52407 6.44668 7.63388 6.80598 7.01513 7.46071C6.71175 7.78408 6.48421 8.15535 6.34848 8.56655C5.8974 9.9279 4.43237 10.6665 3.07113 10.2153C1.70989 9.76422 0.971393 8.29508 1.42248 6.93374C1.79372 5.80793 2.42444 4.75798 3.24678 3.88767C4.87946 2.16703 7.19876 1.22087 9.58991 1.28076C13.9411 1.39254 17.5817 4.9536 17.7054 9.22128C17.8052 12.6546 15.6855 15.8084 12.4321 17.07C12.1487 17.1818 11.9651 17.4053 11.9651 17.6488V17.9403C11.9651 19.3735 10.8074 20.5352 9.37434 20.5392L9.37035 20.5352Z" fill="#9966FF"/>
<path d="M9.37843 26.7232C7.94533 26.7232 6.78369 25.5615 6.78369 24.1283V23.9966C6.78369 22.5633 7.94533 21.4016 9.37843 21.4016C10.8115 21.4016 11.9732 22.5633 11.9732 23.9966V24.1283C11.9732 25.5615 10.8115 26.7232 9.37843 26.7232Z" fill="#9966FF"/>
<path d="M9.37035 20.5352C7.93726 20.5352 6.77562 19.3775 6.77562 17.9443V17.6528C6.77562 15.2495 8.25661 13.1177 10.5559 12.2274C11.7655 11.7563 12.5559 10.6106 12.52 9.36899C12.4761 7.83598 11.0709 6.50657 9.45418 6.46665C8.52407 6.44668 7.63388 6.80598 7.01513 7.46071C6.71175 7.78408 6.48421 8.15535 6.34848 8.56655C5.8974 9.9279 4.43237 10.6665 3.07113 10.2153C1.70989 9.76422 0.971393 8.29508 1.42248 6.93374C1.79372 5.80793 2.42444 4.75798 3.24678 3.88767C4.87946 2.16703 7.19876 1.22087 9.58991 1.28076C13.9411 1.39254 17.5817 4.9536 17.7054 9.22128C17.8052 12.6546 15.6855 15.8084 12.4321 17.07C12.1487 17.1818 11.9651 17.4053 11.9651 17.6488V17.9403C11.9651 19.3735 10.8074 20.5352 9.37434 20.5392L9.37035 20.5352Z" stroke="black" stroke-width="2" stroke-miterlimit="10"/>
<path d="M9.37843 26.7232C7.94533 26.7232 6.78369 25.5615 6.78369 24.1283V23.9966C6.78369 22.5633 7.94533 21.4016 9.37843 21.4016C10.8115 21.4016 11.9732 22.5633 11.9732 23.9966V24.1283C11.9732 25.5615 10.8115 26.7232 9.37843 26.7232Z" stroke="black" stroke-width="2" stroke-miterlimit="10"/>
</svg>
