<svg width="26" height="26" viewBox="0 0 26 26" fill="none" xmlns="http://www.w3.org/2000/svg">
<g clip-path="url(#clip0_229_7639)">
<path d="M10.7033 0H11.2829C11.9943 0.148056 12.6353 0.65 12.879 1.34333C13.056 1.96625 13.0181 2.62167 13.0397 3.26264C13.91 3.23194 14.894 3.25903 15.5206 3.96139C16.6292 4.98875 16.3854 6.91347 15.1721 7.75667C15.2353 7.97153 15.2985 8.18458 15.3635 8.39944C16.2536 8.18819 17.169 8.16833 18.079 8.14305C18.5521 8.14847 18.8825 7.76389 19.2761 7.56347C20.2619 7.01819 21.5854 7.37569 22.2336 8.27847C22.759 8.905 22.7482 9.75903 22.8006 10.53C23.7394 11.0175 24.2089 12.0015 24.4328 12.991C25.2308 13.2293 25.8519 13.8883 26 14.7153V15.3653C25.8158 16.2193 25.1008 16.9596 24.2089 17.0336C23.196 17.1004 22.1794 17.0372 21.1665 17.0571C21.1394 17.6457 21.1701 18.2614 20.9354 18.8157C20.5237 19.7762 19.4621 20.4443 18.4094 20.2962C17.7847 20.2529 17.2846 19.8485 16.8097 19.4819C16.3818 20.4461 15.5007 21.0853 14.5347 21.4446C10.9489 22.945 7.40278 24.5501 3.79708 26H2.81667C1.43181 25.7779 0.283472 24.6693 0 23.2971V22.3961C0.155278 21.6631 0.491111 20.9896 0.785417 20.3053C2.08 17.2774 3.37819 14.2513 4.67097 11.2215C4.89306 10.6871 5.21625 10.205 5.57917 9.75722C4.98333 9.66875 4.38208 9.47014 3.96319 9.01694C2.98819 8.10153 3.03153 6.36097 4.06069 5.50153C4.69986 4.85694 5.655 4.85514 6.5 4.82083C6.52347 4.18167 6.55417 3.50458 6.94056 2.96472C7.36125 2.23889 8.13042 1.82 8.92125 1.61958C9.22278 0.832361 9.815 0.106528 10.7033 0V0ZM10.5842 1.71889C10.5824 2.19736 10.5625 2.67403 10.5318 3.15069C9.96125 3.26264 9.35819 3.18681 8.8075 3.38C8.04917 3.705 7.91014 4.86056 8.54569 5.36972C8.98444 5.82653 9.66153 5.60806 10.2194 5.69833C10.5571 5.72181 10.5625 6.11542 10.5607 6.36819C10.066 6.54875 9.53875 6.52167 9.02236 6.55597C8.11236 6.71306 7.83611 8.05458 8.54208 8.6125C9.00972 9.1 9.73375 8.86528 10.3296 8.96639C10.781 9.31667 10.3675 10.0136 10.6853 10.4325C10.846 10.6726 11.3281 10.5842 11.3371 10.2664C11.4725 9.71208 11.4274 9.05306 11.1006 8.57458C10.5824 7.89028 9.63264 8.31458 8.9375 7.99861C8.76958 7.11931 9.76264 7.31611 10.2971 7.28542C11.2233 7.25472 11.691 5.99986 11.0969 5.32458C10.5806 4.64028 9.63986 5.05917 8.94292 4.74681C8.94111 4.49583 8.93389 4.08958 9.27875 4.06972C9.91972 3.99569 10.7449 4.20514 11.1674 3.56778C11.4635 2.97917 11.4761 2.26236 11.2522 1.64486C11.0301 1.66653 10.8062 1.69181 10.5842 1.71889ZM13.4369 4.96167C12.8303 5.23611 12.8935 6.26889 13.5453 6.44583C14.0851 6.64264 14.7171 6.18222 14.6033 5.59542C14.6124 5.01403 13.9118 4.73417 13.4369 4.96167ZM5.30833 6.59028C4.77931 6.83403 4.74861 7.67361 5.22528 7.98597C5.69472 8.29292 6.4675 8.01306 6.47653 7.40639C6.60472 6.76361 5.85903 6.30861 5.30833 6.59028ZM12.5594 8.24417C12.1406 8.49514 12.0521 9.14153 12.4042 9.48639C12.8212 9.98472 13.7944 9.70125 13.8107 9.02056C13.9299 8.34167 13.1065 7.91917 12.5594 8.24417ZM19.8882 9.05486C19.3917 9.3275 19.3899 10.1743 19.8972 10.4379C20.3865 10.781 21.1756 10.3621 21.1087 9.75C21.1846 9.12167 20.3865 8.71361 19.8882 9.05486ZM11.7235 13.836C10.8333 12.9476 9.94681 12.0557 9.05667 11.1674C8.71722 10.8171 8.27306 10.5246 7.76389 10.5661C7.06694 10.5246 6.50542 11.0554 6.25806 11.6621C4.77389 15.1107 3.30417 18.5647 1.81819 22.0097C1.44986 22.7482 1.67375 23.7431 2.42125 24.1475C2.97194 24.4761 3.67431 24.3768 4.22681 24.1006C7.60319 22.6326 10.9958 21.2008 14.3758 19.7365C14.9121 19.5072 15.3996 19.0324 15.4321 18.4203C15.5061 17.9039 15.2894 17.3947 14.9265 17.0372C14.0761 16.1651 13.204 15.3165 12.3428 14.4553C12.7292 13.3087 13.3972 12.22 14.4156 11.5339C15.3815 10.8243 16.5822 10.5264 17.7685 10.53C17.7974 10.2935 17.8154 10.0569 17.8244 9.81861C15.1793 9.50986 12.5594 11.3497 11.7235 13.836ZM17.5067 12.4674C16.8946 12.9639 17.086 13.8269 17.039 14.5185C16.5046 14.5799 15.9647 14.6214 15.4393 14.746C15.4375 15.0024 15.4447 15.4014 15.7896 15.4285C16.3475 15.4718 17.0174 15.5404 17.4579 15.1179C18.0844 14.6069 17.7197 13.7114 17.9653 13.0325C18.1964 13.0524 18.4257 13.0722 18.6568 13.0957C18.7489 13.7258 18.5412 14.4607 18.9746 14.9933C19.3844 15.5133 20.2349 15.6 20.7115 15.1233C21.3344 14.6051 20.9751 13.7222 21.2135 13.0397C21.4464 13.0542 21.6775 13.0704 21.9104 13.0903C21.9754 13.6464 21.8815 14.2296 22.0512 14.7694C22.3871 15.5188 23.3242 15.5151 24.0193 15.4231C24.4219 15.4285 24.3172 14.9464 24.3335 14.69C23.8225 14.6828 23.3115 14.6412 22.8096 14.5474C22.6362 13.8739 22.9306 13.0126 22.3383 12.5035C21.8382 11.9871 20.9029 12.1315 20.531 12.7274C20.1681 13.2419 20.4317 13.9064 20.2547 14.4751C20.0633 14.6178 19.8142 14.5744 19.5939 14.5889C19.4639 14.0725 19.4874 13.5381 19.4296 13.0126C19.1912 12.2344 18.1206 11.9076 17.5067 12.4674ZM18.2506 17.1871C17.7667 17.4651 17.7649 18.2921 18.256 18.5647C18.7525 18.9132 19.5542 18.4997 19.4819 17.8714C19.5469 17.2485 18.7399 16.8188 18.2506 17.1871Z" fill="black"/>
<path d="M10.5843 1.7188C10.8064 1.69172 11.0303 1.66644 11.2524 1.64478C11.4763 2.26228 11.4636 2.97908 11.1675 3.56769C10.745 4.20505 9.91989 3.99561 9.27892 4.06964C8.93406 4.0895 8.94128 4.49575 8.94309 4.74672C9.64003 5.05908 10.5807 4.64019 11.0971 5.3245C11.6911 5.99977 11.2235 7.25464 10.2973 7.28533C9.76281 7.31602 8.76975 7.11922 8.93767 7.99852C9.63281 8.3145 10.5825 7.89019 11.1007 8.5745C11.4275 9.05297 11.4727 9.712 11.3373 10.2663C11.3282 10.5841 10.8461 10.6726 10.6854 10.4324C10.3677 10.0135 10.7811 9.31658 10.3298 8.9663C9.73392 8.86519 9.00989 9.09991 8.54225 8.61241C7.83628 8.0545 8.11253 6.71297 9.02253 6.55589C9.53892 6.52158 10.0661 6.54866 10.5609 6.36811C10.5627 6.11533 10.5573 5.72172 10.2196 5.69825C9.6617 5.60797 8.98461 5.82644 8.54587 5.36964C7.91031 4.86047 8.04934 3.70491 8.80767 3.37991C9.35836 3.18672 9.96142 3.26255 10.532 3.15061C10.5627 2.67394 10.5825 2.19728 10.5843 1.7188Z" fill="#00BCF2"/>
<path d="M13.4368 4.96145C13.9117 4.73395 14.6122 5.01381 14.6032 5.5952C14.7169 6.182 14.085 6.64242 13.5451 6.44561C12.8933 6.26867 12.8301 5.23589 13.4368 4.96145Z" fill="#00BCF2"/>
<path d="M10.1237 17.1835C10.6148 16.8224 11.4129 17.2485 11.3515 17.866C11.4328 18.4907 10.6311 18.9132 10.1382 18.5647C9.63804 18.2939 9.63443 17.4633 10.1237 17.1835Z" fill="#00BCF2"/>
<path d="M5.3083 6.59034C5.85899 6.30867 6.60469 6.76367 6.47649 7.40645C6.46746 8.01311 5.69469 8.29297 5.22524 7.98603C4.74857 7.67367 4.77927 6.83409 5.3083 6.59034Z" fill="#886CE4"/>
<path d="M11.7235 13.836C12.5595 11.3498 15.1793 9.50989 17.8245 9.81864C17.8155 10.057 17.7974 10.2935 17.7685 10.53C16.5823 10.5264 15.3816 10.8243 14.4156 11.5339C13.3973 12.22 12.7292 13.3088 12.3428 14.4553C12.137 14.2495 11.9311 14.0418 11.7235 13.836Z" fill="#886CE4"/>
<path d="M12.5595 8.2441C13.1066 7.9191 13.9299 8.3416 13.8107 9.02049C13.7945 9.70119 12.8213 9.98466 12.4042 9.48633C12.0521 9.14147 12.1406 8.49508 12.5595 8.2441Z" fill="#FFF100"/>
<path d="M18.2506 17.187C18.7399 16.8187 19.547 17.2484 19.482 17.8713C19.5542 18.4997 18.7526 18.9131 18.256 18.5647C17.7649 18.292 17.7667 17.4651 18.2506 17.187Z" fill="#FFF100"/>
<path d="M19.8882 9.05486C20.3865 8.71361 21.1846 9.12167 21.1087 9.75C21.1755 10.3621 20.3865 10.781 19.8972 10.4379C19.3899 10.1743 19.3917 9.3275 19.8882 9.05486Z" fill="#F03A17"/>
<path d="M17.5065 12.4674C18.1204 11.9077 19.1911 12.2345 19.4294 13.0127C19.4872 13.5381 19.4637 14.0725 19.5937 14.5889C19.814 14.5745 20.0632 14.6178 20.2545 14.4752C20.4315 13.9064 20.1679 13.242 20.5308 12.7274C20.9027 12.1316 21.838 11.9871 22.3382 12.5035C22.9304 13.0127 22.6361 13.8739 22.8094 14.5474C23.3113 14.6413 23.8223 14.6828 24.3333 14.69C24.317 14.9464 24.4218 15.4285 24.0191 15.4231C23.324 15.5152 22.3869 15.5188 22.0511 14.7695C21.8813 14.2296 21.9752 13.6464 21.9102 13.0903C21.6773 13.0704 21.4462 13.0542 21.2133 13.0398C20.975 13.7223 21.3343 14.6052 20.7113 15.1234C20.2347 15.6 19.3843 15.5134 18.9744 14.9934C18.5411 14.4607 18.7487 13.7259 18.6566 13.0957C18.4255 13.0723 18.1962 13.0524 17.9651 13.0325C17.7195 13.7114 18.0843 14.607 17.4577 15.1179C17.0172 15.5404 16.3473 15.4718 15.7894 15.4285C15.4445 15.4014 15.4373 15.0024 15.4391 14.746C15.9645 14.6214 16.5044 14.5799 17.0388 14.5185C17.0858 13.827 16.8944 12.9639 17.5065 12.4674Z" fill="#F03A17"/>
<path d="M7.65559 13.9605C8.05101 13.6482 8.65768 13.845 8.86351 14.2837C9.22823 14.9103 8.4049 15.7282 7.78018 15.3598C7.22587 15.1233 7.15004 14.2909 7.65559 13.9605Z" fill="#F03A17"/>
<path d="M6.25784 11.662C6.5052 11.0554 7.06673 10.5245 7.76367 10.5661C8.27284 10.5245 8.71701 10.817 9.05645 11.1673C9.94659 12.0557 10.8331 12.9476 11.7233 13.8359C11.9309 14.0418 12.1367 14.2494 12.3426 14.4552C13.2038 15.3165 14.0759 16.1651 14.9263 17.0372C15.2892 17.3947 15.5059 17.9038 15.4319 18.4202C15.3994 19.0323 14.9119 19.5072 14.3756 19.7365C10.9956 21.2008 7.60298 22.6326 4.22659 24.1005C3.67409 24.3768 2.97173 24.4761 2.42103 24.1475C1.67353 23.743 1.44964 22.7482 1.81798 22.0097C3.30395 18.5647 4.77367 15.1107 6.25784 11.662ZM7.65534 13.9605C7.14978 14.2909 7.22562 15.1233 7.77992 15.3598C8.40465 15.7282 9.22798 14.9102 8.86326 14.2837C8.65742 13.845 8.05076 13.6482 7.65534 13.9605ZM10.1235 17.1834C9.63423 17.4633 9.63784 18.2938 10.138 18.5647C10.6309 18.9132 11.4326 18.4907 11.3513 17.8659C11.4127 17.2484 10.6146 16.8223 10.1235 17.1834Z" fill="#FFC83D"/>
</g>
<defs>
<clipPath id="clip0_229_7639">
<rect width="26" height="26" fill="white"/>
</clipPath>
</defs>
</svg>
