<svg width="26" height="26" viewBox="0 0 26 26" fill="none" xmlns="http://www.w3.org/2000/svg">
<path d="M2.24972 3.34027C3.69778 1.9211 5.75611 1.15193 7.78375 1.29457C9.80056 1.31443 11.6169 2.43027 13 3.82596C14.1447 2.71554 15.4935 1.72068 17.095 1.41374C18.9078 1.07971 20.8524 1.34693 22.4304 2.33277C24.4526 3.52624 25.7924 5.73624 26 8.0654V9.21554C25.8483 11.059 24.9781 12.8032 23.6365 14.0689C20.0886 17.6096 16.5515 21.1611 13 24.6982C9.39069 21.0997 5.78861 17.494 2.18653 13.8865C0.940694 12.6515 0.1625 10.9796 0 9.2336V8.10513C0.160694 6.32124 0.944306 4.57888 2.24972 3.34027ZM4.33153 3.7754C2.68125 4.80277 1.57444 6.71304 1.65028 8.67388C1.60514 10.2321 2.31833 11.7524 3.43056 12.8212C6.62458 16.008 9.80597 19.2057 13 22.3907C16.2554 19.1479 19.4982 15.8889 22.7482 12.6407C24.449 10.9471 24.8553 8.14124 23.7394 6.02513C22.954 4.47777 21.4356 3.33846 19.7365 3.00082C18.5954 2.84013 17.3767 2.85277 16.324 3.37277C14.9807 3.97402 14.0292 5.13138 13 6.13707C11.8192 4.95804 10.6654 3.60568 9.00611 3.11638C7.44792 2.69388 5.69833 2.89249 4.33153 3.7754Z" fill="black"/>
<path d="M4.33177 3.77547C5.69857 2.89256 7.44816 2.69395 9.00635 3.11645C10.6657 3.60575 11.8194 4.95811 13.0002 6.13714C14.0294 5.13145 14.9809 3.97408 16.3243 3.37283C17.3769 2.85283 18.5957 2.8402 19.7368 3.00089C21.4358 3.33853 22.9543 4.47783 23.7397 6.0252C24.8555 8.14131 24.4493 10.9471 22.7484 12.6408C19.4984 15.8889 16.2557 19.148 13.0002 22.3908C9.80621 19.2058 6.62483 16.0081 3.4308 12.8213C2.31857 11.7524 1.60538 10.2321 1.65052 8.67395C1.57469 6.71311 2.68149 4.80283 4.33177 3.77547Z" fill="#E81224"/>
<path d="M5.66043 6.2201C6.4332 5.92399 7.35584 6.55774 7.3089 7.39191C7.39557 8.18996 7.07057 9.16316 7.71876 9.7951C9.04584 11.18 10.4524 12.489 11.7704 13.8829C12.424 14.5329 11.96 15.8545 11.0103 15.8672C10.4668 15.9701 10.0317 15.5927 9.6832 15.2316C8.40668 13.9208 7.0814 12.6587 5.81751 11.3334C4.81182 10.2934 4.77571 8.74788 4.87501 7.39191C4.87862 6.89177 5.16751 6.37899 5.66043 6.2201Z" fill="#EF6950"/>
</svg>
