<svg width="25" height="30" viewBox="0 0 25 30" fill="none" xmlns="http://www.w3.org/2000/svg">
<path d="M4.00145 12.8232L7.54417 8.35939L8.76994 3.00574L10.0198 2.01538H12.005L13.1154 3.37891L12.38 9.46457L12.3127 10.6846L13.6538 10.986H20.148L21.6382 11.9907L21.2055 15L22.6765 16.1578L23.2725 17.2582L22.6765 19.0763L21.2536 19.6026L21.8785 21.4206L21.1575 23.3343L20.148 24.0041L20.7248 25.583L20.869 27.023L19.475 28.2191H8.4623L4.00145 25.6834L1.67969 20.9422L2.32382 15.3923L4.00145 12.8232Z" fill="url(#paint0_radial_334_6806)"/>
<path d="M24.0623 17.3987C24.028 16.2284 23.2832 15.2315 22.2441 14.8221C22.6031 14.3457 22.8185 13.7525 22.8185 13.1102C22.8185 11.5351 21.5314 10.2501 19.9458 10.2501H12.9809L13.9566 4.36845L13.9566 4.36834C14.2247 2.74667 13.1214 1.21409 11.4945 0.94252L11.4874 0.941328L11.4801 0.940655L11.4759 0.940258C11.3249 0.926165 11.1633 0.911084 11.0001 0.911084C10.3001 0.911084 9.6151 1.1568 9.07857 1.60852C8.53289 2.06465 8.16673 2.70059 8.05314 3.404C8.05312 3.40414 8.0531 3.40427 8.05307 3.40441L7.93787 4.10669C7.93786 4.10679 7.93784 4.1069 7.93782 4.10701C7.45905 6.97986 6.08462 9.63869 4.06411 11.598C3.91202 11.7445 3.76483 11.8959 3.62256 12.0521L3.62232 12.0524C1.88566 13.9664 0.93623 16.4981 0.93623 19.1815C0.93623 24.116 4.22645 28.2238 8.7917 28.9693C9.0574 29.0492 9.33689 29.0889 9.61569 29.0889H19.1142C20.6945 29.0889 21.9869 27.8091 21.9869 26.2288C21.9869 25.5124 21.7212 24.8551 21.2839 24.354C22.1635 23.8643 22.7608 22.9298 22.7608 21.8559C22.7608 21.222 22.5552 20.6354 22.2038 20.1634C23.2915 19.7576 24.0683 18.7083 24.0683 17.4878V17.4047L24.0623 17.3987ZM21.337 18.7682L21.3348 18.7614L15.6292 19.679H15.4292V19.6791V19.6791V19.6791V19.6792V19.6792V19.6792V19.6792V19.6793V19.6793V19.6793V19.6794V19.6794V19.6794V19.6794V19.6795V19.6795V19.6795V19.6796V19.6796V19.6796V19.6797V19.6797V19.6797V19.6797V19.6798V19.6798V19.6798V19.6799V19.6799V19.6799V19.68V19.68V19.68V19.6801V19.6801V19.6801V19.6801V19.6802V19.6802V19.6802V19.6803V19.6803V19.6803V19.6804V19.6804V19.6804V19.6805V19.6805V19.6805V19.6806V19.6806V19.6806V19.6807V19.6807V19.6807V19.6808V19.6808V19.6808V19.6809V19.6809V19.6809V19.681V19.681V19.681V19.6811V19.6811V19.6811V19.6812V19.6812V19.6812V19.6813V19.6813V19.6814V19.6814V19.6814V19.6815V19.6815V19.6815V19.6816V19.6816V19.6816V19.6817V19.6817V19.6817V19.6818V19.6818V19.6818V19.6819V19.6819V19.682V19.682V19.682V19.6821V19.6821V19.6821V19.6822V19.6822V19.6822V19.6823V19.6823V19.6824V19.6824V19.6824V19.6825V19.6825V19.6825V19.6826V19.6826V19.6827V19.6827V19.6827V19.6828V19.6828V19.6828V19.6829V19.6829V19.683V19.683V19.683V19.6831V19.6831V19.6831V19.6832V19.6832V19.6833V19.6833V19.6833V19.6834V19.6834V19.6835V19.6835V19.6835V19.6836V19.6836V19.6836V19.6837V19.6837V19.6838V19.6838V19.6838V19.6839V19.6839V19.684V19.684V19.684V19.6841V19.6841V19.6842V19.6842V19.6842V19.6843V19.6843V19.6844V19.6844V19.6844V19.6845V19.6845V19.6846V19.6846V19.6846V19.6847V19.6847V19.6848V19.6848V19.6848V19.6849V19.6849V19.685V19.685V19.685V19.6851V19.6851V19.6852V19.6852V19.6852V19.6853V19.6853V19.6854V19.6854V19.6854V19.6855V19.6855V19.6856V19.6856V19.6856V19.6857V19.6857V19.6858V19.6858V19.6859V19.6859V19.6859V19.686V19.686V19.6861V19.6861V19.6861V19.6862V19.6862V19.6863V19.6863V19.6863V19.6864V19.6864V19.6865V19.6865V19.6866V19.6866V19.6866V19.6867V19.6867V19.6868V19.6868V19.6868V19.6869V19.6869V19.687V19.687V19.6871V19.6871V19.6871V19.6872V19.6872V19.6873V19.6873V19.6873V19.6874V19.6874V19.6875V19.6875V19.6876V19.6876V19.6876V19.6877V19.6877V19.6878V19.6878V19.6879V19.6879V19.6879V19.688V19.688V19.6881V19.6881V19.6881V19.6882V19.6882V19.6883V19.6883V19.6884V19.6884V19.6884V19.6885V19.6885V19.6886V19.6886V19.6887V19.6887V19.6887V19.6888V19.6888V19.6889V19.6889V19.6889V19.689V19.689V19.6891V19.6891V19.6892V19.6892V19.6892V19.6893V19.6893V19.6894V19.6894V19.6894V19.6895V19.6895V19.6896V19.6896V19.6897V19.6897V19.6897V19.6898V19.6898V19.6899V19.6899V19.69V19.69V19.69V19.6901V19.6901V19.6902V19.6902V19.6902V19.6903V19.6903V19.6904V19.6904V19.6905V19.6905V19.6905V19.6906V19.6906V19.6907V19.6907V19.6907V19.6908V19.6908V19.6909V19.6909V19.691V19.691V19.691V19.6911V19.6911V19.6912V19.6912V19.6912V19.6913V19.6913V19.6914V19.6914V19.6914V19.6915V19.6915V19.6916V19.6916V19.6917V19.6917V19.6917V19.6918V19.6918V19.6919V19.6919V19.6919V19.692V19.692V19.6921V19.6921V19.6921V19.6922V19.6922V19.6923V19.6923V19.6923V19.6924V19.6924V19.6925V19.6925V19.6925V19.6926V19.6926V19.6927V19.6927V19.6927V19.6928V19.6928V19.6929V19.6929V19.6929V19.693V19.693V19.6931V19.6931V19.6931V19.6932V19.6932V19.6933V19.6933V19.6933V19.6934V19.6934V19.6935V19.6935V19.6935V19.6936V19.6936V19.6936V19.6937V19.6937V19.6938V19.6938V19.6938V19.6939V19.6939V19.694V19.694V19.694V19.6941V19.6941V19.6941V19.6942V19.6942V19.6943V19.6943V19.6943V19.6944V19.6944V19.6945V19.6945V19.6945V19.6946V19.6946V19.6946V19.6947V19.6947V19.6947V19.6948V19.6948V19.6949V19.6949V19.6949V19.695V19.695V19.695V19.6951V19.6951V19.6952V19.6952V19.6952V19.6953V19.6953V19.6953V19.6954V19.6954V19.6954V19.6955V19.6955V19.6955V19.6956V19.6956V19.6957V19.6957V19.6957V19.6958V19.6958V19.6958V19.6959V19.6959V19.6959V19.696V19.696V19.696V19.6961V19.6961V19.6961V19.6962V19.6962V19.6962V19.6963V19.6963V19.6963V19.6964V19.6964V19.6964V19.6965V19.6965V19.6965V19.6966V19.6966V19.6966V19.6967V19.6967V19.6967V19.6968V19.6968V19.6968V19.6969V19.6969V19.6969V19.697V19.697V19.697V19.6971V19.6971V19.6971V19.6972V19.6972V19.6972V19.6973V19.6973V19.6973V19.6974V19.6974V19.6974V19.6974V19.6975V19.6975V19.6975V19.6976V19.6976V19.6976V19.6977V19.6977V19.6977V19.6977V19.6978V19.6978V19.6978V19.6979V19.6979V19.6979V19.698V19.698V19.698V19.698V19.6981V19.6981V19.6981V19.6981V19.6982H15.4291L15.4293 19.7033C15.4417 20.1912 15.8443 20.5776 16.331 20.5776H19.8833C20.5958 20.5776 21.1687 21.1491 21.1687 21.8559C21.1687 22.5627 20.5958 23.1343 19.8833 23.1343H16.3214C15.8177 23.1343 15.41 23.5387 15.41 24.0423C15.41 24.546 15.8177 24.9504 16.3214 24.9504H19.1094C19.8218 24.9504 20.3948 25.522 20.3948 26.2288C20.3948 26.9356 19.8218 27.5071 19.1094 27.5071H9.61569C9.46491 27.5071 9.31977 27.4822 9.18384 27.433L9.16519 27.4262L9.14558 27.4233C5.41091 26.8603 2.52355 23.5022 2.52355 19.1815C2.52355 16.8096 3.39478 14.6665 4.79821 13.1202L4.79899 13.1193C4.91575 12.9892 5.04203 12.8588 5.16825 12.7379L5.16897 12.7372C7.48463 10.4955 8.97475 7.54223 9.50055 4.37324L9.5006 4.37288L9.61593 3.66985C9.72923 2.9849 10.3256 2.50238 11.0001 2.50238C11.0788 2.50238 11.1544 2.50671 11.2328 2.51899C11.9987 2.64502 12.5151 3.36514 12.3891 4.12602L11.2739 10.8383L11.2739 10.8384C11.1864 11.3672 11.5931 11.8462 12.1297 11.8462H19.9458C20.6583 11.8462 21.2312 12.4177 21.2312 13.1245C21.2312 13.8313 20.6583 14.4029 19.9458 14.4029H16.3262C15.8225 14.4029 15.4148 14.8073 15.4148 15.311C15.4148 15.8146 15.8225 16.219 16.3262 16.219H21.1956C21.9081 16.219 22.481 16.7906 22.481 17.4974C22.481 18.1567 21.9824 18.6984 21.337 18.7682Z" fill="black" stroke="black" stroke-width="0.4"/>
<defs>
<radialGradient id="paint0_radial_334_6806" cx="0" cy="0" r="1" gradientUnits="userSpaceOnUse" gradientTransform="translate(8.17869 6.18253) scale(24.8279 24.711)">
<stop stop-color="#FAE200"/>
<stop offset="1" stop-color="#FF9400"/>
</radialGradient>
</defs>
</svg>
