<svg width="26" height="26" viewBox="0 0 26 26" fill="none" xmlns="http://www.w3.org/2000/svg">
<path d="M11.536 3.43423C12.0145 1.88506 13.7803 0.892004 15.3512 1.30187C16.7342 1.59978 17.8519 2.90159 17.8446 4.33159C17.8392 5.99992 17.8952 7.67006 17.7995 9.33659C18.5488 9.342 19.3053 9.28423 20.051 9.38534C21.3944 9.59117 22.568 10.7431 22.6944 12.1117C22.7666 12.5017 22.6384 13.0127 23.0573 13.2366C23.9601 13.8721 24.4367 14.9826 24.3519 16.0731C24.267 17.4363 24.6516 18.971 23.7795 20.1555C23.4708 20.7116 22.6077 20.9228 22.7269 21.6739C22.7413 23.373 21.1759 24.8192 19.4985 24.7849C13.533 24.7885 7.56742 24.7903 1.60006 24.7831C1.60006 20.7188 1.59826 16.6563 1.60187 12.592C3.37312 12.5812 5.14617 12.5938 6.91923 12.5848C8.38534 10.6077 9.86409 8.63964 11.3446 6.67159C11.3898 5.59548 11.2309 4.48506 11.536 3.43423ZM13.0112 4.33159C12.9245 5.29034 13.0003 6.25631 12.9696 7.21687C11.2219 9.54423 9.47228 11.8698 7.73353 14.2044C6.24756 14.2224 4.75978 14.2098 3.27381 14.2116C3.3027 17.1962 3.2052 20.1808 3.27381 23.1617C6.69534 23.1581 10.1169 23.1527 13.5384 23.1635C13.9952 23.1617 14.4538 23.1617 14.9124 23.1653C16.3858 23.1473 17.8573 23.1671 19.3306 23.1599C19.8976 23.1816 20.4952 22.9541 20.822 22.4738C21.1741 21.961 21.1759 21.302 21.0983 20.708H21.1542C21.1488 20.4408 21.1452 20.1717 21.1434 19.9045C22.3856 19.9208 23.0158 18.5287 22.7287 17.4508H22.7901C22.7738 17.1835 22.7558 16.9145 22.7395 16.6473C22.7287 16.2194 22.7521 15.786 22.6727 15.3635C22.4939 14.6864 21.8115 14.2206 21.1217 14.2152C21.1235 13.9426 21.129 13.6717 21.1344 13.3991C21.1037 12.9549 21.129 12.5017 21.0315 12.0648C20.8256 11.4238 20.1828 10.9796 19.5184 10.967C17.9602 10.9309 16.402 10.9887 14.8456 10.9327C15.1399 10.7305 15.2952 10.391 15.4974 10.1076C15.7971 9.66881 16.2233 9.23909 16.2196 8.67034C16.2214 7.17714 16.3442 5.67853 16.2052 4.18714C16.1059 3.23562 14.9846 2.57117 14.0999 2.92686C13.4969 3.12186 13.0599 3.70325 13.0112 4.33159Z" fill="black"/>
<path d="M13.0108 4.33151C13.0595 3.70318 13.4965 3.12179 14.0995 2.92679C14.9843 2.57109 16.1055 3.23554 16.2048 4.18706C16.3438 5.67845 16.2211 7.17706 16.2193 8.67026C16.2229 9.23901 15.7968 9.66873 15.497 10.1075C14.8254 10.2303 14.1049 10.3982 13.6373 10.938C13.0054 11.5718 12.9693 12.5161 12.9674 13.3557C12.9837 15.9466 12.9674 18.5376 12.9729 21.1286C12.9458 21.8508 13.1968 22.5369 13.538 23.1634C10.1165 23.1526 6.69495 23.158 3.27342 23.1616C3.20481 20.1807 3.30231 17.1961 3.27342 14.2115C4.75939 14.2097 6.24717 14.2223 7.73314 14.2043C9.47189 11.8697 11.2215 9.54415 12.9693 7.21679C12.9999 6.25623 12.9241 5.29026 13.0108 4.33151Z" fill="#FFC83D"/>
<path d="M14.0165 11.6711C14.17 11.3136 14.5437 11.1439 14.8453 10.9326C16.4016 10.9886 17.9598 10.9308 19.518 10.9669C20.1825 10.9796 20.8253 11.4237 21.0311 12.0647C21.1286 12.5016 21.1033 12.9548 21.134 13.399C18.6839 13.4243 16.2355 13.4098 13.7854 13.408C13.8269 12.8266 13.7944 12.22 14.0165 11.6711Z" fill="#FFC83D"/>
<path d="M13.8142 16.6491C13.7889 15.8348 13.8052 15.0187 13.8359 14.2043C16.2643 14.2278 18.6928 14.2007 21.1213 14.2152C21.811 14.2206 22.4935 14.6864 22.6723 15.3635C22.7517 15.786 22.7282 16.2193 22.7391 16.6473C19.7635 16.6671 16.788 16.6635 13.8142 16.6491Z" fill="#FFC83D"/>
<path d="M13.8326 19.917C13.8019 19.0972 13.7928 18.2775 13.8199 17.4596C16.7883 17.4506 19.7584 17.4668 22.7285 17.4506C23.0156 18.5285 22.3855 19.9206 21.1433 19.9043C18.7058 19.926 16.2701 19.8989 13.8326 19.917Z" fill="#FFC83D"/>
<path d="M13.7836 20.7169C16.2211 20.7043 18.6604 20.7223 21.0979 20.7079C21.1755 21.3019 21.1737 21.9609 20.8216 22.4737C20.4948 22.954 19.8972 23.1815 19.3302 23.1598C17.8569 23.1671 16.3854 23.1472 14.912 23.1652C14.5618 22.8655 14.132 22.6037 13.9388 22.165C13.7818 21.6991 13.8143 21.199 13.7836 20.7169Z" fill="#FFC83D"/>
<path d="M13.6374 10.9381C14.105 10.3982 14.8254 10.2303 15.4971 10.1075C15.2949 10.391 15.1396 10.7305 14.8453 10.9327C14.5438 11.1439 14.17 11.3137 14.0166 11.6712C13.7945 12.22 13.827 12.8267 13.7854 13.4081C16.2356 13.4099 18.6839 13.4244 21.1341 13.3991C21.1286 13.6717 21.1232 13.9425 21.1214 14.2152C18.6929 14.2007 16.2645 14.2278 13.836 14.2044C13.8053 15.0187 13.7891 15.8348 13.8143 16.6491C16.7881 16.6635 19.7636 16.6671 22.7392 16.6473C22.7554 16.9145 22.7735 17.1835 22.7898 17.4507H22.7284C19.7582 17.467 16.7881 17.4507 13.8198 17.4598C13.7927 18.2777 13.8017 19.0974 13.8324 19.9171C16.2699 19.8991 18.7056 19.9262 21.1431 19.9045C21.1449 20.1717 21.1485 20.4407 21.1539 20.708H21.0979C18.6604 20.7224 16.2211 20.7044 13.7836 20.717C13.8143 21.1991 13.7818 21.6992 13.9389 22.165C14.1321 22.6038 14.5618 22.8656 14.9121 23.1653C14.4535 23.1617 13.9949 23.1617 13.5381 23.1635C13.1968 22.537 12.9459 21.8509 12.9729 21.1287C12.9675 18.5377 12.9838 15.9467 12.9675 13.3557C12.9693 12.5162 13.0054 11.5719 13.6374 10.9381Z" fill="#D48C00"/>
</svg>
