<svg width="23" height="32" viewBox="0 0 23 32" fill="none" xmlns="http://www.w3.org/2000/svg">
<path d="M4.46958 14.1908C4.12499 14.5327 3.7983 14.8877 3.50742 15.2772C2.29465 16.8961 1.63232 18.8742 1.63232 20.874C1.63232 26.1461 6.04931 30.4183 11.5001 30.4183C16.9508 30.4183 21.3678 26.1461 21.3678 20.874C21.3678 18.6362 20.5399 15.6495 18.5753 14.2471C18.5798 14.5977 18.8125 15.0089 18.8662 15.3725C18.9467 15.9092 18.996 16.4546 18.9691 16.9956C18.9288 17.8008 18.7006 18.6145 18.1904 19.2508C17.6982 19.8654 16.7539 20.4671 15.9484 20.1598C15.0847 19.8308 14.5387 19.0041 14.4044 18.1384C14.2031 16.8052 14.7222 15.3378 15.0578 14.0566C15.4158 12.7018 15.7783 11.3296 15.7515 9.91855C15.6888 6.72411 13.317 3.8673 11.2092 1.58618C11.2942 1.68141 11.0839 2.36531 11.0615 2.47352C10.9093 3.23967 10.7124 3.99716 10.4753 4.74166C9.93376 6.4644 9.18641 8.12655 8.24215 9.67615C7.6201 10.689 6.90855 11.6543 6.11197 12.5459C5.59285 13.126 5.01107 13.6411 4.46063 14.1908H4.46958Z" fill="url(#paint0_linear_334_6812)"/>
<path d="M14.9639 22.3932C15.2906 22.8044 15.5949 23.2286 15.8411 23.6874C17.479 26.739 15.0042 30.4182 11.5002 30.4182C8.80164 30.4182 6.61328 28.3016 6.61328 25.6915C6.61328 24.5834 7.025 23.1031 7.99611 22.4105C7.99611 22.5836 7.87975 22.7871 7.8529 22.9689C7.81263 23.2372 7.78577 23.5056 7.80368 23.774C7.82605 24.1722 7.93793 24.5747 8.18854 24.8907C8.4302 25.1937 8.90009 25.4924 9.29838 25.3409C9.72352 25.1764 9.99651 24.7695 10.0636 24.341C10.1621 23.6787 9.907 22.9559 9.73695 22.3196C9.55794 21.6487 9.37893 20.9691 9.39236 20.2679C9.42369 18.688 10.5962 17.2726 11.6434 16.1428C11.5986 16.1904 11.706 16.5281 11.715 16.5843C12.0238 18.1556 12.7264 19.6965 13.7556 20.9518C14.1539 21.4366 14.5746 21.9084 14.9639 22.3975V22.3932Z" fill="url(#paint1_linear_334_6812)"/>
<path d="M4.46958 14.1908C4.12499 14.5327 3.7983 14.8877 3.50742 15.2772C2.29465 16.8961 1.63232 18.8742 1.63232 20.874C1.63232 26.1461 6.04931 30.4183 11.5001 30.4183C16.9508 30.4183 21.3678 26.1461 21.3678 20.874C21.3678 18.6362 20.5399 15.6495 18.5753 14.2471C18.5798 14.5977 18.8125 15.0089 18.8662 15.3725C18.9467 15.9092 18.996 16.4546 18.9691 16.9956C18.9288 17.8008 18.7006 18.6145 18.1904 19.2508C17.6982 19.8654 16.7539 20.4671 15.9484 20.1598C15.0847 19.8308 14.5387 19.0041 14.4044 18.1384C14.2031 16.8052 14.7222 15.3378 15.0578 14.0566C15.4158 12.7018 15.7783 11.3296 15.7515 9.91855C15.6888 6.72411 13.317 3.8673 11.2092 1.58618C11.2942 1.68141 11.0839 2.36531 11.0615 2.47352C10.9093 3.23967 10.7124 3.99716 10.4753 4.74166C9.93376 6.4644 9.18641 8.12655 8.24215 9.67615C7.6201 10.689 6.90855 11.6543 6.11197 12.5459C5.59285 13.126 5.01107 13.6411 4.46063 14.1908H4.46958Z" stroke="black" stroke-width="2" stroke-linejoin="round"/>
<defs>
<linearGradient id="paint0_linear_334_6812" x1="4.8992" y1="9.55928" x2="14.0483" y2="25.3201" gradientUnits="userSpaceOnUse">
<stop offset="0.11" stop-color="#FFDD70"/>
<stop offset="0.67" stop-color="#FF4300"/>
</linearGradient>
<linearGradient id="paint1_linear_334_6812" x1="11.357" y1="17.6924" x2="11.6458" y2="37.0238" gradientUnits="userSpaceOnUse">
<stop stop-color="#FFEC00"/>
<stop offset="1" stop-color="#FF7600"/>
</linearGradient>
</defs>
</svg>
