<svg width="26" height="26" viewBox="0 0 26 26" fill="none" xmlns="http://www.w3.org/2000/svg">
<g clip-path="url(#clip0_229_7636)">
<path d="M9.72839 0H11.8012C14.8562 0.137222 17.7126 2.145 18.8663 4.97792C19.4676 6.28333 19.5109 7.74042 19.4766 9.15236C20.5671 8.96097 21.6721 8.90681 22.7771 8.94292C22.7338 10.4108 22.7681 11.8787 22.7284 13.3467C22.6941 14.6196 22.8277 15.8961 22.6977 17.1654C22.4684 20.0543 20.8145 22.7644 18.4041 24.3569C17.021 25.2886 15.396 25.8176 13.7458 26H12.397C10.1852 25.8267 8.01311 24.9347 6.38992 23.409C4.45978 21.6432 3.27533 19.0613 3.27353 16.4378C3.18144 13.381 4.43991 10.3242 6.59936 8.16833C6.29603 8.14667 5.99089 8.12319 5.68755 8.09972C5.7038 6.96583 5.65686 5.83194 5.7038 4.69806C5.75617 3.58583 6.417 2.51694 7.40825 2.00056C8.11603 1.60875 8.95019 1.64847 9.732 1.58347C9.73019 1.05625 9.72839 0.527222 9.72839 0V0ZM11.366 1.64847C11.3913 3.55333 10.8099 5.45278 9.73019 7.02181C8.84367 8.39042 7.50033 9.38347 6.60839 10.7467C5.52866 12.3012 4.86783 14.1682 4.90033 16.0713C4.79561 18.6442 6.05047 21.2008 8.09978 22.7446C8.8545 23.2826 9.68325 23.7106 10.5626 24.0031C12.1388 24.4906 13.8487 24.4526 15.4339 24.0229V23.9904C16.3295 23.725 17.1546 23.2772 17.9094 22.7337C19.3466 21.6089 20.4317 20.0272 20.8741 18.2487C21.2208 17.0101 21.0619 15.7137 21.1124 14.4462C21.1738 13.1481 21.1377 11.8481 21.1449 10.5481C19.8792 10.5426 18.711 11.1999 17.9021 12.1442C17.8606 10.4415 17.9996 8.72806 17.7848 7.03264C17.3334 3.99389 14.4553 1.5275 11.366 1.64847ZM7.7495 3.77361C7.05617 4.51028 7.37033 5.61167 7.31797 6.52167C7.74769 6.43681 8.21172 6.32847 8.50061 5.96917C9.18853 5.22889 8.87436 4.13653 8.92672 3.22653C8.497 3.30597 8.03658 3.4125 7.7495 3.77361Z" fill="black"/>
<path d="M11.3659 1.64843C14.4552 1.52746 17.3333 3.99385 17.7847 7.0326C17.9996 8.72802 17.8605 10.4415 17.9021 12.1441C18.7109 11.1998 19.8791 10.5426 21.1448 10.548C21.1376 11.848 21.1737 13.148 21.1123 14.4462C21.0618 15.7137 21.2207 17.0101 20.874 18.2487C20.4316 20.0272 19.3465 21.6089 17.9093 22.7337C17.8912 21.3741 17.9093 20.0145 17.8966 18.6568C17.0318 18.7073 16.2012 18.9727 15.4682 19.4332C15.3779 18.2054 14.9337 16.983 14.049 16.1037C13.1607 15.1684 11.8968 14.6539 10.613 14.6232C10.5173 15.1865 10.4596 15.7769 10.1833 16.2879C9.6308 17.3477 8.5565 18.097 8.25497 19.2941C7.99858 20.4244 8.12678 21.5962 8.09969 22.7445C6.05039 21.2008 4.79553 18.6441 4.90025 16.0712C4.86775 14.1682 5.52858 12.3012 6.6083 10.7466C7.50025 9.38343 8.84358 8.39038 9.73011 7.02177C10.8098 5.45274 11.3912 3.55329 11.3659 1.64843Z" fill="#F7630C"/>
<path d="M7.74944 3.77365C8.03652 3.41253 8.49694 3.30601 8.92666 3.22656C8.8743 4.13656 9.18847 5.22892 8.50055 5.9692C8.21166 6.32851 7.74763 6.43684 7.31791 6.5217C7.37027 5.6117 7.0561 4.51031 7.74944 3.77365Z" fill="#F7630C"/>
<path d="M10.6131 14.6232C11.8968 14.6539 13.1607 15.1684 14.049 16.1037C14.9338 16.983 15.3779 18.2054 15.4682 19.4332C16.2013 18.9728 17.0318 18.7073 17.8967 18.6568C17.9093 20.0146 17.8913 21.3741 17.9093 22.7337C17.1546 23.2772 16.3295 23.725 15.4339 23.9904C15.4393 23.3043 15.4393 22.62 15.4339 21.9357C14.6196 22.2173 13.8035 22.4936 12.9765 22.7391C12.9729 21.914 12.9783 21.0889 12.9657 20.2637C12.229 20.3919 11.4671 20.67 11.0374 21.3218C10.4343 22.0819 10.5697 23.1003 10.5625 24.003C9.6832 23.7105 8.85445 23.2826 8.09973 22.7446C8.12681 21.5962 7.99862 20.4244 8.25501 19.2941C8.55654 18.0971 9.63084 17.3478 10.1833 16.2879C10.4596 15.7769 10.5174 15.1865 10.6131 14.6232Z" fill="#FCE100"/>
<path d="M11.0374 21.3218C11.4671 20.67 12.2291 20.392 12.9657 20.2638C12.9784 21.0889 12.973 21.9141 12.9766 22.7392C13.8035 22.4937 14.6196 22.2174 15.4339 21.9357C15.4394 22.62 15.4394 23.3043 15.4339 23.9905V24.023C13.8487 24.4527 12.1388 24.4906 10.5625 24.0031C10.5698 23.1003 10.4344 22.082 11.0374 21.3218Z" fill="white"/>
</g>
<defs>
<clipPath id="clip0_229_7636">
<rect width="26" height="26" fill="white"/>
</clipPath>
</defs>
</svg>
