<svg width="26" height="26" viewBox="0 0 26 26" fill="none" xmlns="http://www.w3.org/2000/svg">
<path d="M14.6666 0H15.6434C18.6514 0.281667 21.2966 2.66861 21.8256 5.65319C23.5643 5.61528 25.1929 7.085 25.1785 8.85083C25.1893 11.9817 25.1767 15.1107 25.1839 18.2415C25.2038 20.3829 24.2757 22.5135 22.6886 23.9543C21.4591 25.1207 19.8232 25.7887 18.1531 26H17.021C15.7102 25.8989 14.4066 25.5107 13.2998 24.7921C11.886 23.79 10.7557 22.4521 9.49003 21.2767C9.71392 21.8274 9.82586 22.4503 9.63267 23.0281C9.34558 23.7846 8.58544 24.3858 7.75489 24.3479C4.59336 24.4671 1.616 22.0476 0.975025 18.9692C0.790859 18.0339 0.592248 16.8856 1.32711 16.1272C1.83628 15.4989 2.68308 15.3617 3.44322 15.4826C2.60364 14.6629 2.28947 13.3322 2.79864 12.2561C2.87989 11.9961 3.15614 11.7343 2.97197 11.4581C2.68489 10.8676 2.37794 10.2519 2.43391 9.57486C2.43211 8.15569 3.50461 6.93514 4.80642 6.48556C5.31197 4.82805 7.13378 3.73931 8.831 4.19972C9.56767 3.39806 10.6149 2.81486 11.7361 2.97736C12.3175 2.96111 12.7942 3.39986 13.3431 3.44681C13.2998 2.94667 12.9856 2.5025 13.0181 1.98972C12.9784 1.02917 13.7674 0.21125 14.6666 0V0ZM14.69 1.70625C14.6629 1.93917 14.6846 2.17389 14.7424 2.39958C16.5534 2.35625 18.3806 3.37097 19.101 5.06639C19.4928 5.75611 19.37 6.57583 19.6409 7.29986C19.9189 7.35583 20.1374 7.27639 20.2963 7.05611C20.4913 4.11125 17.662 1.27292 14.69 1.70625ZM14.7045 4.78653C15.3491 4.88944 16.0623 4.98694 16.5136 5.51597C16.891 5.90778 17.0282 6.44944 17.0824 6.97486C17.1077 7.36667 17.7504 7.4443 17.8281 7.04347C18.0213 5.39319 16.3981 3.85306 14.7586 4.06972C14.6648 4.29903 14.6593 4.54458 14.7045 4.78653ZM9.82586 5.84458C9.806 6.27972 9.83308 6.73111 10.0281 7.13014C9.46294 6.59389 8.97544 5.83194 8.13405 5.73806C7.3685 5.64417 6.686 6.19306 6.40253 6.87194C6.30864 7.39014 6.41878 7.89931 6.621 8.37597C5.76336 7.60681 4.35141 8.20986 4.07697 9.26431C3.81336 10.6889 5.2885 11.3714 6.00169 12.3464C5.55572 12.0864 4.94905 12.1388 4.5753 12.5035C4.01739 12.9585 4.06253 13.9028 4.61503 14.3433C7.50572 17.1094 10.3693 19.9026 13.2564 22.6706C15.1884 24.6549 18.5648 24.9094 20.8289 23.3476C22.6291 22.1812 23.6871 20.02 23.5589 17.884C23.5535 14.9338 23.5607 11.9817 23.5553 9.03139C23.6167 8.16653 22.8945 7.33778 22.0224 7.31431C21.1611 7.24389 20.3306 7.98236 20.3216 8.85264C20.2945 10.1599 20.3234 11.4689 20.3107 12.7761C20.1266 12.5974 19.946 12.4168 19.7636 12.2381C17.4417 9.91069 15.1143 7.59056 12.7942 5.26319C12.4241 4.87861 11.9347 4.54819 11.3768 4.59153C10.6366 4.57347 10.0245 5.16208 9.82586 5.84458ZM2.45016 17.3081C2.24433 20.2638 5.07364 23.1075 8.05461 22.6688C8.09072 22.4376 8.06003 22.2065 8.01128 21.979C6.19489 22.0224 4.37128 21.0058 3.64905 19.305C3.26086 18.6171 3.36558 17.8046 3.12003 17.0769C2.83475 17.0047 2.61266 17.0824 2.45016 17.3081ZM4.90933 17.3315C4.7035 18.9999 6.35739 20.5165 7.99864 20.2944C8.05822 20.0633 8.09975 19.8268 8.05822 19.5885C7.45155 19.4711 6.77808 19.4242 6.32308 18.9475C5.88253 18.5575 5.70739 17.9707 5.65864 17.4037C5.6478 16.9921 4.97072 16.909 4.90933 17.3315Z" fill="black"/>
<path d="M14.69 1.70624C17.662 1.27291 20.4913 4.11125 20.2963 7.05611C20.1374 7.27639 19.9189 7.35583 19.6409 7.29986C19.37 6.57583 19.4928 5.75611 19.101 5.06639C18.3806 3.37097 16.5534 2.35624 14.7424 2.39958C14.6846 2.17388 14.663 1.93916 14.69 1.70624Z" fill="#31D2F7"/>
<path d="M2.45016 17.308C2.61266 17.0823 2.83474 17.0047 3.12002 17.0769C3.36558 17.8046 3.26085 18.6171 3.64905 19.305C4.37127 21.0058 6.19488 22.0223 8.01127 21.979C8.06002 22.2065 8.09072 22.4376 8.05461 22.6687C5.07363 23.1075 2.24433 20.2637 2.45016 17.308Z" fill="#31D2F7"/>
<path d="M4.90926 17.3315C4.97065 16.909 5.64774 16.9921 5.65857 17.4037C5.70732 17.9707 5.88246 18.5575 6.32301 18.9475C6.77801 19.4242 7.45149 19.4711 8.05815 19.5885C8.09968 19.8268 8.05815 20.0633 7.99857 20.2944C6.35732 20.5165 4.70343 18.9999 4.90926 17.3315Z" fill="#31D2F7"/>
<path d="M14.7045 4.78657C14.6594 4.54462 14.6648 4.29907 14.7587 4.06976C16.3981 3.85309 18.0213 5.39323 17.8281 7.04351C17.7505 7.44435 17.1077 7.36671 17.0824 6.9749C17.0282 6.44948 16.891 5.90782 16.5137 5.51601C16.0623 4.98698 15.3491 4.88948 14.7045 4.78657Z" fill="#31D2F8"/>
<path d="M9.82579 5.84453C10.0244 5.16203 10.6365 4.57342 11.3768 4.59148C11.9347 4.54815 12.424 4.87856 12.7941 5.26315C15.1143 7.59051 17.4416 9.91065 19.7636 12.238C18.8445 13.1643 17.8027 13.9858 17.0119 15.0294C15.8744 16.7013 16.1037 19.1461 17.512 20.5869C17.7432 20.8487 18.2523 20.7873 18.274 20.3901C18.0375 19.8593 17.6114 19.4422 17.373 18.9131C16.7898 17.6276 17.0895 16.0116 18.07 15.0005C18.794 14.2368 19.5848 13.5398 20.3107 12.7761C20.3233 11.4688 20.2944 10.1598 20.3215 8.85259C20.3305 7.98231 21.1611 7.24384 22.0223 7.31426C22.8944 7.33773 23.6166 8.16648 23.5552 9.03134C23.5607 11.9816 23.5534 14.9337 23.5589 17.884C23.687 20.0199 22.629 22.1812 20.8289 23.3476C18.5647 24.9094 15.1883 24.6548 13.2564 22.6705C10.3693 19.9026 7.50566 17.1094 4.61496 14.3433C4.06246 13.9027 4.01732 12.9584 4.57524 12.5034C4.94899 12.1387 5.55566 12.0863 6.00163 12.3463C7.38288 13.5813 8.61968 14.968 9.97204 16.2319C10.2682 16.5749 10.6491 16.2409 10.7502 15.9123C9.32566 14.4065 7.82885 12.9693 6.36996 11.4977C5.59899 10.7593 4.89482 9.95217 4.0769 9.26426C4.35135 8.20981 5.76329 7.60676 6.62093 8.37592C8.53482 10.1273 10.3079 12.0304 12.164 13.8449C12.3409 14.0526 12.6479 14.1555 12.879 13.9623C13.074 13.7348 12.9115 13.4423 12.7309 13.269C10.6311 11.1276 8.45718 9.05662 6.40246 6.8719C6.68593 6.19301 7.36843 5.64412 8.13399 5.73801C8.97538 5.8319 9.46288 6.59384 10.028 7.13009C11.6368 8.6937 13.1859 10.3187 14.8163 11.8606C15.0366 11.7288 15.4664 11.5104 15.1955 11.2052C14.3794 10.2194 13.3882 9.38884 12.5161 8.45176C11.6133 7.5887 10.8044 6.62453 9.82579 5.84453Z" fill="#FFC83D"/>
<path d="M9.82578 5.8446C10.8044 6.6246 11.6133 7.58877 12.5161 8.45183C13.3881 9.38891 14.3794 10.2195 15.1955 11.2053C15.4663 11.5104 15.0366 11.7289 14.8163 11.8607C13.1859 10.3188 11.6368 8.69377 10.028 7.13016C9.833 6.73113 9.80592 6.27974 9.82578 5.8446Z" fill="#D48C00"/>
<path d="M6.62092 8.37597C6.4187 7.89931 6.30856 7.39014 6.40245 6.87195C8.45717 9.05667 10.6311 11.1276 12.7309 13.269C12.9115 13.4424 13.074 13.7349 12.879 13.9624C12.6479 14.1556 12.3409 14.0526 12.164 13.845C10.3079 12.0304 8.53481 10.1274 6.62092 8.37597Z" fill="#D48C00"/>
<path d="M4.07694 9.26428C4.89486 9.9522 5.59902 10.7593 6.37 11.4978C7.82889 12.9693 9.32569 14.4065 10.7503 15.9123C10.6492 16.241 10.2682 16.575 9.97208 16.2319C8.61972 14.968 7.38291 13.5814 6.00166 12.3464C5.28847 11.3714 3.81333 10.6889 4.07694 9.26428Z" fill="#D48C00"/>
<path d="M19.7637 12.238C19.946 12.4168 20.1266 12.5973 20.3107 12.7761C19.5849 13.5398 18.7941 14.2368 18.07 15.0005C17.0896 16.0116 16.7899 17.6276 17.3731 18.9132C17.6114 19.4422 18.0375 19.8593 18.2741 20.3901C18.2524 20.7873 17.7432 20.8487 17.5121 20.5869C16.1038 19.1461 15.8745 16.7014 17.012 15.0294C17.8028 13.9858 18.8446 13.1643 19.7637 12.238Z" fill="#D48C00"/>
</svg>
