<svg width="47" height="34" viewBox="0 0 47 34" fill="none" xmlns="http://www.w3.org/2000/svg">
<path d="M28.3116 3.99194L26.4155 5.87269" stroke="#601588" stroke-width="2" stroke-linecap="round" stroke-linejoin="round"/>
<path d="M18.7456 3.99194L20.6417 5.87269" stroke="#601588" stroke-width="2" stroke-linecap="round" stroke-linejoin="round"/>
<path d="M23.481 1.67505L23.5758 5.26301" stroke="#601588" stroke-width="2" stroke-linecap="round" stroke-linejoin="round"/>
<path d="M1.73769 13.574L1.57178 24.9007L3.6717 29.5298L7.65349 31.9124L12.37 32.297L16.6836 29.3891L21.5803 17.7154V15.6798L19.9354 14.7887L18.3332 15.7642L16.8401 19.3897L16.3139 9.24964L14.8397 8.23657L12.9388 8.90257L12.5502 7.6034L11.4552 6.25732L9.68705 6.62785L8.82433 9.38565L7.65349 8.90257L5.82376 9.47476L5.30708 12.5046L3.78072 11.6322L1.9747 12.3358L1.73769 13.574Z" fill="url(#paint0_radial_334_6823)"/>
<path d="M45.1297 13.574L45.2956 24.9007L43.1957 29.5298L39.2139 31.9124L34.4974 32.297L30.1838 29.3891L25.2871 17.7154V15.6798L26.932 14.7887L28.5342 15.7642L30.0226 19.3897L30.5535 9.24964L32.0277 8.23657L33.9286 8.90257L34.3173 7.6034L35.4122 6.25732L37.1803 6.62785L38.0431 9.38565L39.2139 8.90257L41.0436 9.47476L41.5603 12.5046L43.0867 11.6322L44.8927 12.3358L45.1297 13.574Z" fill="url(#paint1_radial_334_6823)"/>
<path d="M5.30713 19.174V10.7505C5.30713 9.73269 6.14141 8.90723 7.17004 8.90723C8.19867 8.90723 9.03295 9.73269 9.03295 10.7505V18.4939" stroke="url(#paint2_radial_334_6823)" stroke-width="2" stroke-linecap="round" stroke-linejoin="round"/>
<path d="M9.04248 18.4891V8.02072C9.04248 7.00296 9.87676 6.17749 10.9054 6.17749C11.934 6.17749 12.7683 7.00296 12.7683 8.02072V18.4891" stroke="url(#paint3_radial_334_6823)" stroke-width="2" stroke-linecap="round" stroke-linejoin="round"/>
<path d="M16.5604 20.0791L18.2147 16.0221C18.556 15.0606 19.6178 14.5588 20.5896 14.8824C21.5661 15.2201 22.078 16.2754 21.7415 17.2369L20.7602 20.0322L18.0536 26.9783C17.5843 28.179 16.8969 29.2999 15.9394 30.1723C14.4131 31.5746 12.3653 32.4329 10.1184 32.4329C5.39714 32.4329 1.57652 28.648 1.57652 23.9813V23.9391L1.57178 13.466C1.57178 12.4482 2.40606 11.6274 3.43943 11.6274C3.95611 11.6274 4.4254 11.8338 4.76195 12.1668C5.09851 12.4998 5.30708 12.9641 5.30708 13.4707V19.1692" stroke="url(#paint4_radial_334_6823)" stroke-width="2" stroke-linecap="round" stroke-linejoin="round"/>
<path d="M12.7729 18.4938V10.0656C12.7729 9.04783 13.6072 8.22705 14.6406 8.22705C15.1573 8.22705 15.6266 8.43342 15.9631 8.76642C16.2997 9.09942 16.5083 9.56374 16.5083 10.0703V20.1119" stroke="url(#paint5_radial_334_6823)" stroke-width="2" stroke-linecap="round" stroke-linejoin="round"/>
<path d="M41.6931 19.174V10.7505C41.6931 9.73269 40.8588 8.90723 39.8302 8.90723C38.8016 8.90723 37.9673 9.73269 37.9673 10.7505V18.4939" stroke="url(#paint6_radial_334_6823)" stroke-width="2" stroke-linecap="round" stroke-linejoin="round"/>
<path d="M37.9578 18.4891V8.02072C37.9578 7.00296 37.1235 6.17749 36.0948 6.17749C35.0662 6.17749 34.2319 7.00296 34.2319 8.02072V18.4891" stroke="url(#paint7_radial_334_6823)" stroke-width="2" stroke-linecap="round" stroke-linejoin="round"/>
<path d="M30.4397 20.0791L28.7853 16.0221C28.444 15.0606 27.3822 14.5588 26.4105 14.8824C25.434 15.2201 24.9221 16.2754 25.2586 17.2369L26.2398 20.0322L28.9465 26.9783C29.4158 28.179 30.1031 29.2999 31.0607 30.1723C32.587 31.5746 34.6348 32.4329 36.8817 32.4329C41.6029 32.4329 45.4236 28.648 45.4236 23.9813V23.9391L45.4283 13.466C45.4283 12.4482 44.594 11.6274 43.5606 11.6274C43.044 11.6274 42.5747 11.8338 42.2381 12.1668C41.9016 12.4998 41.693 12.9641 41.693 13.4707V19.1692" stroke="url(#paint8_radial_334_6823)" stroke-width="2" stroke-linecap="round" stroke-linejoin="round"/>
<path d="M34.227 18.4938V10.0656C34.227 9.04783 33.3927 8.22705 32.3593 8.22705C31.8427 8.22705 31.3734 8.43342 31.0368 8.76642C30.7003 9.09942 30.4917 9.56374 30.4917 10.0703V20.1119" stroke="url(#paint9_radial_334_6823)" stroke-width="2" stroke-linecap="round" stroke-linejoin="round"/>
<defs>
<radialGradient id="paint0_radial_334_6823" cx="0" cy="0" r="1" gradientUnits="userSpaceOnUse" gradientTransform="translate(3.63378 11.0882) scale(22.7531 22.5127)">
<stop stop-color="#FAE200"/>
<stop offset="1" stop-color="#FF9400"/>
</radialGradient>
<radialGradient id="paint1_radial_334_6823" cx="0" cy="0" r="1" gradientUnits="userSpaceOnUse" gradientTransform="translate(28.264 8.79469) scale(26.6117 26.3305)">
<stop stop-color="#FAE200"/>
<stop offset="1" stop-color="#FF9400"/>
</radialGradient>
<radialGradient id="paint2_radial_334_6823" cx="0" cy="0" r="1" gradientUnits="userSpaceOnUse" gradientTransform="translate(7.17004 14.0382) scale(4.4416 4.39467)">
<stop offset="0.57" stop-color="#0E0C0A"/>
<stop offset="0.8" stop-color="#0E0C0A"/>
<stop offset="1" stop-color="#0E0C0A"/>
</radialGradient>
<radialGradient id="paint3_radial_334_6823" cx="0" cy="0" r="1" gradientUnits="userSpaceOnUse" gradientTransform="translate(10.9054 12.3357) scale(5.12419 5.07005)">
<stop offset="0.57" stop-color="#0E0C0A"/>
<stop offset="0.8" stop-color="#0E0C0A"/>
<stop offset="1" stop-color="#0E0C0A"/>
</radialGradient>
<radialGradient id="paint4_radial_334_6823" cx="0" cy="0" r="1" gradientUnits="userSpaceOnUse" gradientTransform="translate(11.7111 22.0396) scale(10.9215 10.8061)">
<stop offset="0.57" stop-color="#0E0C0A"/>
<stop offset="0.8" stop-color="#0E0C0A"/>
<stop offset="1" stop-color="#0E0C0A"/>
</radialGradient>
<radialGradient id="paint5_radial_334_6823" cx="0" cy="0" r="1" gradientUnits="userSpaceOnUse" gradientTransform="translate(14.6406 14.1695) scale(4.97724 4.92465)">
<stop offset="0.57" stop-color="#0E0C0A"/>
<stop offset="0.8" stop-color="#0E0C0A"/>
<stop offset="1" stop-color="#0E0C0A"/>
</radialGradient>
<radialGradient id="paint6_radial_334_6823" cx="0" cy="0" r="1" gradientUnits="userSpaceOnUse" gradientTransform="translate(39.8302 14.0382) scale(4.4416 4.39467)">
<stop offset="0.57" stop-color="#0E0C0A"/>
<stop offset="0.8" stop-color="#0E0C0A"/>
<stop offset="1" stop-color="#0E0C0A"/>
</radialGradient>
<radialGradient id="paint7_radial_334_6823" cx="0" cy="0" r="1" gradientUnits="userSpaceOnUse" gradientTransform="translate(36.0948 12.3357) scale(5.12419 5.07005)">
<stop offset="0.57" stop-color="#0E0C0A"/>
<stop offset="0.8" stop-color="#0E0C0A"/>
<stop offset="1" stop-color="#0E0C0A"/>
</radialGradient>
<radialGradient id="paint8_radial_334_6823" cx="0" cy="0" r="1" gradientUnits="userSpaceOnUse" gradientTransform="translate(35.2889 22.0396) scale(10.9215 10.8061)">
<stop offset="0.57" stop-color="#0E0C0A"/>
<stop offset="0.8" stop-color="#0E0C0A"/>
<stop offset="1" stop-color="#0E0C0A"/>
</radialGradient>
<radialGradient id="paint9_radial_334_6823" cx="0" cy="0" r="1" gradientUnits="userSpaceOnUse" gradientTransform="translate(32.3594 14.1695) scale(4.97724 4.92465)">
<stop offset="0.57" stop-color="#0E0C0A"/>
<stop offset="0.8" stop-color="#0E0C0A"/>
<stop offset="1" stop-color="#0E0C0A"/>
</radialGradient>
</defs>
</svg>
