<svg width="28" height="28" viewBox="0 0 28 28" fill="none" xmlns="http://www.w3.org/2000/svg">
<path d="M14.0022 1.58496C7.14536 1.58496 1.58496 7.14536 1.58496 14.0022C1.58496 20.8591 7.14536 26.4195 14.0022 26.4195C20.8591 26.4195 26.4195 20.8591 26.4195 14.0022C26.4195 7.14536 20.8591 1.58496 14.0022 1.58496Z" fill="url(#paint0_radial_334_6816)"/>
<path d="M14.0022 1.58496C7.14536 1.58496 1.58496 7.14536 1.58496 14.0022C1.58496 20.8591 7.14536 26.4195 14.0022 26.4195C20.8591 26.4195 26.4195 20.8591 26.4195 14.0022C26.4195 7.14536 20.8591 1.58496 14.0022 1.58496Z" fill="url(#paint1_radial_334_6816)"/>
<path d="M14.0022 1.58496C7.14536 1.58496 1.58496 7.14536 1.58496 14.0022C1.58496 20.8591 7.14536 26.4195 14.0022 26.4195C20.8591 26.4195 26.4195 20.8591 26.4195 14.0022C26.4195 7.14536 20.8591 1.58496 14.0022 1.58496Z" stroke="black" stroke-width="2" stroke-miterlimit="10"/>
<path d="M11.4187 10.8476C11.4187 11.7462 10.6886 12.4764 9.78994 12.4764C8.89129 12.4764 8.16113 11.7462 8.16113 10.8476C8.16113 9.9489 8.89129 9.21875 9.78994 9.21875C10.6886 9.21875 11.4187 9.9489 11.4187 10.8476Z" fill="black"/>
<path d="M19.6751 10.8476C19.6751 11.7462 18.9449 12.4764 18.0463 12.4764C17.1476 12.4764 16.4175 11.7462 16.4175 10.8476C16.4175 9.9489 17.1476 9.21875 18.0463 9.21875C18.9449 9.21875 19.6751 9.9489 19.6751 10.8476Z" fill="black"/>
<path d="M7.29541 15.5469C8.29235 18.2475 10.89 20.1759 13.9417 20.1759C16.9933 20.1759 19.5863 18.2475 20.5879 15.5469" stroke="black" stroke-width="2" stroke-miterlimit="10" stroke-linecap="round"/>
<defs>
<radialGradient id="paint0_radial_334_6816" cx="0" cy="0" r="1" gradientUnits="userSpaceOnUse" gradientTransform="translate(4.71619 7.05175) scale(22.5271)">
<stop stop-color="#FAE200"/>
<stop offset="1" stop-color="#FF9400"/>
</radialGradient>
<radialGradient id="paint1_radial_334_6816" cx="0" cy="0" r="1" gradientUnits="userSpaceOnUse" gradientTransform="translate(4.71619 7.05175) scale(22.5271)">
<stop stop-color="#FAE200"/>
<stop offset="1" stop-color="#FF9400"/>
</radialGradient>
</defs>
</svg>
