<svg width="26" height="26" viewBox="0 0 26 26" fill="none" xmlns="http://www.w3.org/2000/svg">
<g clip-path="url(#clip0_229_7637)">
<path d="M12.1658 0H13.7818C16.4937 0.187778 19.1497 1.20792 21.246 2.94667C24.0392 5.21444 25.7906 8.68292 26 12.2706V13.6825C25.8357 16.5118 24.7415 19.2833 22.889 21.4301C20.6375 24.115 17.2575 25.7653 13.771 26H12.276C9.54958 25.8176 6.87014 24.8029 4.76486 23.0497C1.98792 20.809 0.26 17.3803 0 13.8324V12.2344C0.234722 8.61611 2.015 5.11875 4.86236 2.86361C6.92431 1.18083 9.51889 0.204028 12.1658 0V0ZM11.9654 1.67736C7.93722 1.99333 4.21417 4.67278 2.60722 8.37778C1.64667 10.4993 1.42639 12.9151 1.84167 15.1974C2.47 18.4582 4.60597 21.3886 7.53097 22.9685C9.88722 24.2829 12.7129 24.6603 15.3472 24.1276C18.2939 23.5119 20.9679 21.6793 22.5785 19.1317C24.301 16.4901 24.7885 13.1192 23.994 10.0804C23.2537 7.22944 21.3471 4.7125 18.8085 3.21931C16.7682 1.98611 14.3379 1.46972 11.9654 1.67736Z" fill="black"/>
<path d="M7.26399 9.23705C8.53691 8.55274 10.2684 9.06913 10.978 10.324C11.3427 10.8747 11.3608 11.5482 11.3554 12.1855C11.1026 12.1837 10.8498 12.1837 10.5952 12.1819C10.5302 11.1672 9.74482 10.1886 8.68496 10.1597C7.53302 10.0207 6.50746 11.0462 6.4858 12.1729C6.21496 12.1765 5.94233 12.1801 5.67149 12.1855C5.58483 11.0065 6.15177 9.74441 7.26399 9.23705Z" fill="black"/>
<path d="M15.5979 9.63792C16.7553 8.5582 18.7901 8.76584 19.7236 10.0388C20.2093 10.6418 20.3519 11.429 20.3266 12.1856C20.0576 12.1801 19.7868 12.1765 19.516 12.1729C19.4491 11.689 19.339 11.1817 18.9761 10.826C18.3333 10.0622 17.0965 9.92501 16.2985 10.5208C15.7423 10.8856 15.495 11.5482 15.4065 12.1838C15.1501 12.1838 14.8937 12.1838 14.6373 12.1838C14.5741 11.2449 14.8468 10.2518 15.5979 9.63792Z" fill="black"/>
<path d="M7.35404 16.9758C7.17168 16.4865 7.60501 15.8907 8.13043 15.9358C8.71182 15.9467 8.95196 16.5895 9.29682 16.9614C11.0627 19.2418 14.932 19.2346 16.6942 16.956C16.9524 16.6328 17.1817 16.2771 17.5013 16.0099C17.9725 15.7752 18.5593 16.0839 18.6731 16.5895C18.7218 17.0679 18.3752 17.4561 18.1278 17.8299C17.0192 19.2364 15.3039 20.1193 13.529 20.2927C11.3913 20.4678 9.20293 19.5018 7.86501 17.8335C7.67001 17.5627 7.47321 17.2882 7.35404 16.9758Z" fill="black"/>
<path d="M11.9657 1.67749C14.3382 1.46986 16.7685 1.98624 18.8088 3.21944C21.3474 4.71263 23.254 7.22958 23.9943 10.0806C24.7888 13.1193 24.3013 16.4903 22.5788 19.1318C20.9682 21.6794 18.2942 23.5121 15.3475 24.1278C12.7132 24.6604 9.88752 24.283 7.53127 22.9686C4.60627 21.3887 2.4703 18.4583 1.84197 15.1975C1.42669 12.9153 1.64697 10.4994 2.60752 8.37791C4.21447 4.67291 7.93752 1.99347 11.9657 1.67749ZM7.26405 9.23736C6.15183 9.74472 5.58488 11.0068 5.67155 12.1858C5.94238 12.1804 6.21502 12.1768 6.48585 12.1732C6.50752 11.0465 7.53308 10.021 8.68502 10.16C9.74488 10.1889 10.5303 11.1675 10.5953 12.1822C10.8499 12.184 11.1027 12.184 11.3554 12.1858C11.3609 11.5485 11.3428 10.875 10.9781 10.3243C10.2685 9.06944 8.53697 8.55305 7.26405 9.23736ZM15.5985 9.63819C14.8474 10.2521 14.5747 11.2451 14.6379 12.184H15.4071C15.4956 11.5485 15.7429 10.8858 16.299 10.5211C17.0971 9.92527 18.3339 10.0625 18.9767 10.8262C19.3396 11.1819 19.4497 11.6893 19.5165 12.1732C19.7874 12.1768 20.0582 12.1804 20.3272 12.1858C20.3525 11.4293 20.2099 10.6421 19.7242 10.039C18.7907 8.76611 16.7559 8.55847 15.5985 9.63819ZM5.68599 13.6321C4.62433 14.524 4.6171 16.3494 5.68419 17.2396C6.26016 17.8083 7.09613 17.904 7.8653 17.8336C9.20322 19.5019 11.3915 20.4679 13.5293 20.2928C15.3042 20.1194 17.0195 19.2365 18.1281 17.83C18.8521 17.8914 19.6411 17.8372 20.2117 17.3317C21.3384 16.4993 21.4214 14.6612 20.4031 13.7115C19.4515 12.704 17.637 12.7997 16.7992 13.9065C16.0535 14.7533 16.1636 16.0262 16.6945 16.9561C14.9322 19.2347 11.0629 19.2419 9.2971 16.9615C9.77016 16.0985 9.93988 14.9682 9.34947 14.116C8.6128 12.8737 6.72058 12.6336 5.68599 13.6321Z" fill="#FFC83D"/>
<path d="M5.68542 13.6321C6.72 12.6336 8.61222 12.8738 9.34889 14.116C9.93931 14.9682 9.76959 16.0985 9.29653 16.9615C8.95167 16.5896 8.71153 15.9468 8.13014 15.936C7.60472 15.8908 7.17139 16.4867 7.35375 16.976C7.47292 17.2883 7.66972 17.5628 7.86472 17.8336C7.09556 17.904 6.25958 17.8083 5.68361 17.2396C4.61653 16.3494 4.62375 14.524 5.68542 13.6321Z" fill="#F7894A"/>
<path d="M16.7986 13.9066C17.6364 12.7998 19.451 12.7041 20.4025 13.7116C21.4209 14.6613 21.3378 16.4993 20.2111 17.3317C19.6406 17.8372 18.8516 17.8914 18.1275 17.83C18.3749 17.4563 18.7216 17.0681 18.6728 16.5896C18.5591 16.0841 17.9723 15.7753 17.501 16.01C17.1814 16.2773 16.9521 16.6329 16.6939 16.9561C16.1631 16.0263 16.0529 14.7534 16.7986 13.9066Z" fill="#F7894A"/>
</g>
<defs>
<clipPath id="clip0_229_7637">
<rect width="26" height="26" fill="white"/>
</clipPath>
</defs>
</svg>
