<svg width="18" height="18" viewBox="0 0 18 18" fill="none" xmlns="http://www.w3.org/2000/svg">
<path fill-rule="evenodd" clip-rule="evenodd" d="M6.75 9C8.82107 9 10.5 7.32107 10.5 5.25C10.5 3.17893 8.82107 1.5 6.75 1.5C4.67893 1.5 3 3.17893 3 5.25C3 7.32107 4.67893 9 6.75 9ZM6.75 7.5C7.99264 7.5 9 6.49264 9 5.25C9 4.00736 7.99264 3 6.75 3C5.50736 3 4.5 4.00736 4.5 5.25C4.5 6.49264 5.50736 7.5 6.75 7.5Z" fill="#9966FF"/>
<path d="M11.25 3C12.4926 3 13.5 4.00736 13.5 5.25C13.5 6.49264 12.4926 7.5 11.25 7.5V9C13.3211 9 15 7.32107 15 5.25C15 3.17893 13.3211 1.5 11.25 1.5V3Z" fill="#9966FF"/>
<path d="M18 14.25C18 12.1789 16.3211 10.5 14.25 10.5V12C15.4926 12 16.5 13.0074 16.5 14.25V16.5H18V14.25Z" fill="#9966FF"/>
<path d="M3.75 10.5C1.67893 10.5 0 12.1789 0 14.25V16.5H1.5V14.25C1.5 13.0074 2.50736 12 3.75 12H9.75C10.9926 12 12 13.0074 12 14.25V16.5H13.5V14.25C13.5 12.1789 11.8211 10.5 9.75 10.5H3.75Z" fill="#9966FF"/>
</svg>
