<svg width="18" height="18" viewBox="0 0 18 18" fill="none" xmlns="http://www.w3.org/2000/svg">
<g clip-path="url(#clip0_1966_32239)">
<path d="M15 8.25C15 8.77318 14.9464 9.28385 14.8445 9.77682L13.9016 10.7197L13.2269 10.0449C13.4044 9.47817 13.5 8.87526 13.5 8.25C13.5 4.93629 10.8137 2.25 7.5 2.25C4.18629 2.25 1.5 4.93629 1.5 8.25C1.5 11.5637 4.18629 14.25 7.5 14.25C8.5313 14.25 9.50183 13.9898 10.3495 13.5315L10.7197 13.9016L9.02682 15.5945C8.53385 15.6964 8.02318 15.75 7.5 15.75C3.35786 15.75 0 12.3921 0 8.25C0 4.10786 3.35786 0.75 7.5 0.75C11.6421 0.75 15 4.10786 15 8.25Z" fill="#9966FF"/>
<path d="M14.432 13.3713L16.5533 11.25L17.614 12.3107L15.4927 14.432L17.614 16.5533L16.5533 17.614L14.432 15.4927L12.3107 17.614L11.25 16.5533L13.3713 14.432L11.25 12.3107L12.3107 11.25L14.432 13.3713Z" fill="#9966FF"/>
<path d="M10.1513 9.375C8.68685 10.8395 6.31248 10.8395 4.84801 9.375L3.78735 10.4357C5.83761 12.4859 9.16172 12.4859 11.212 10.4357L10.1513 9.375Z" fill="#9966FF"/>
<path d="M5.25 7.875C5.87132 7.875 6.375 7.37132 6.375 6.75C6.375 6.12868 5.87132 5.625 5.25 5.625C4.62868 5.625 4.125 6.12868 4.125 6.75C4.125 7.37132 4.62868 7.875 5.25 7.875Z" fill="#9966FF"/>
<path d="M10.875 6.75C10.875 7.37132 10.3713 7.875 9.75 7.875C9.12868 7.875 8.625 7.37132 8.625 6.75C8.625 6.12868 9.12868 5.625 9.75 5.625C10.3713 5.625 10.875 6.12868 10.875 6.75Z" fill="#9966FF"/>
</g>
<defs>
<clipPath id="clip0_1966_32239">
<rect width="18" height="18" fill="white"/>
</clipPath>
</defs>
</svg>
