<svg width="18" height="18" viewBox="0 0 18 18" fill="none" xmlns="http://www.w3.org/2000/svg">
<path d="M5.09251 16.2068C4.61087 16.3528 4.125 15.9923 4.125 15.489V14.25H2.25C1.83579 14.25 1.5 13.9142 1.5 13.5V3C1.5 2.58579 1.83579 2.25 2.25 2.25H15.75C16.1642 2.25 16.5 2.58579 16.5 3V9.19049C16.0339 8.86522 15.5268 8.62432 15 8.4678V3.75H3V12.75H5.625V14.4781L8.25313 13.6817C8.27044 14.1847 8.35966 14.6857 8.52078 15.1679L5.09251 16.2068Z" fill="#9966FF"/>
<path fill-rule="evenodd" clip-rule="evenodd" d="M16.1988 10.8964C16.3077 11.0091 16.4081 11.127 16.5 11.2492C17.6051 12.7183 17.489 14.8143 16.1517 16.1517C14.6872 17.6161 12.3128 17.6161 10.8484 16.1517C10.4343 15.7376 10.1374 15.2509 9.95745 14.7326C9.78874 14.2466 9.72293 13.7328 9.76003 13.2251C9.82332 12.3589 10.1861 11.5106 10.8484 10.8483C11.9708 9.72587 13.6279 9.46375 15 10.062C15.4181 10.2442 15.8097 10.5064 16.1517 10.8483C16.1675 10.8642 16.1833 10.8802 16.1988 10.8964ZM15.6213 12.9375H11.3787V14.0625L15.6213 14.0625V12.9375Z" fill="#9966FF"/>
<path d="M9.19049 9V10.5H4.5V9H9.19049Z" fill="#9966FF"/>
<path d="M13.5 6H4.5V7.5H13.5V6Z" fill="#9966FF"/>
</svg>
