<svg width="18" height="18" viewBox="0 0 18 18" fill="none" xmlns="http://www.w3.org/2000/svg">
<g clip-path="url(#clip0_1300_7933)">
<path d="M17.25 3.00002H15V0.75H13.5V3.00002L11.25 3.00002L11.25 4.50002L13.5 4.50002V6.75L15 6.75V4.50002L17.25 4.50002V3.00002Z" fill="#868E96"/>
<path d="M9 2.28703C8.75332 2.26254 8.50312 2.25 8.25 2.25C4.10786 2.25 0.75 5.60786 0.75 9.75C0.75 13.8921 4.10786 17.25 8.25 17.25C12.3921 17.25 15.75 13.8921 15.75 9.75H14.25C14.25 13.0637 11.5637 15.75 8.25 15.75C4.93629 15.75 2.25 13.0637 2.25 9.75C2.25 6.43629 4.93629 3.75 8.25 3.75C8.50399 3.75 8.7543 3.76578 9 3.79642V2.28703Z" fill="#868E96"/>
<path d="M6 9.375C6.62132 9.375 7.125 8.87132 7.125 8.25C7.125 7.62868 6.62132 7.125 6 7.125C5.37868 7.125 4.875 7.62868 4.875 8.25C4.875 8.87132 5.37868 9.375 6 9.375Z" fill="#868E96"/>
<path d="M10.9013 10.875C9.43685 12.3395 7.06248 12.3395 5.59801 10.875L4.53735 11.9357C6.58761 13.9859 9.91172 13.9859 11.962 11.9357L10.9013 10.875Z" fill="#868E96"/>
<path d="M11.625 8.25C11.625 8.87132 11.1213 9.375 10.5 9.375C9.87868 9.375 9.375 8.87132 9.375 8.25C9.375 7.62868 9.87868 7.125 10.5 7.125C11.1213 7.125 11.625 7.62868 11.625 8.25Z" fill="#868E96"/>
</g>
<defs>
<clipPath id="clip0_1300_7933">
<rect width="18" height="18" fill="white"/>
</clipPath>
</defs>
</svg>
