<svg width="16" height="16" viewBox="0 0 16 16" fill="none" xmlns="http://www.w3.org/2000/svg">
<path fill-rule="evenodd" clip-rule="evenodd" d="M13.1293 1.61318L5.70371 3.99999H3.33333C2.59695 3.99999 2 4.59694 2 5.33332V9.33332C2 10.0697 2.59695 10.6667 3.33333 10.6667H4.66667V12.6667C4.66667 13.7712 5.5621 14.6667 6.66667 14.6667C7.77124 14.6667 8.66667 13.7712 8.66667 12.6667V11.619L13.1293 13.0535C13.5597 13.1918 14 12.8708 14 12.4188V2.24787C14 1.79584 13.5597 1.47486 13.1293 1.61318ZM6 9.36138L12.6667 11.5042V3.16241L6 5.30527V9.36138ZM7.33333 11.1905L6 10.7619V12.6667C6 13.0348 6.29848 13.3333 6.66667 13.3333C7.03486 13.3333 7.33333 13.0348 7.33333 12.6667V11.1905ZM3.33333 5.33332H4.66667V9.33332H3.33333L3.33333 5.33332Z" fill="#212529"/>
</svg>
