<svg width="16" height="16" viewBox="0 0 16 16" fill="none" xmlns="http://www.w3.org/2000/svg">
<path fill-rule="evenodd" clip-rule="evenodd" d="M6 8.00001C7.84095 8.00001 9.33333 6.50763 9.33333 4.66668C9.33333 2.82573 7.84095 1.33334 6 1.33334C4.15905 1.33334 2.66667 2.82573 2.66667 4.66668C2.66667 6.50763 4.15905 8.00001 6 8.00001ZM6 6.66668C7.10457 6.66668 8 5.77125 8 4.66668C8 3.56211 7.10457 2.66668 6 2.66668C4.89543 2.66668 4 3.56211 4 4.66668C4 5.77125 4.89543 6.66668 6 6.66668Z" fill="#212529"/>
<path d="M10 2.66668C11.1046 2.66668 12 3.56211 12 4.66668C12 5.77125 11.1046 6.66668 10 6.66668V8.00001C11.8409 8.00001 13.3333 6.50763 13.3333 4.66668C13.3333 2.82573 11.8409 1.33334 10 1.33334V2.66668Z" fill="#212529"/>
<path d="M16 12.6667C16 10.8257 14.5076 9.33334 12.6667 9.33334V10.6667C13.7712 10.6667 14.6667 11.5621 14.6667 12.6667V14.6667H16V12.6667Z" fill="#212529"/>
<path d="M3.33333 9.33334C1.49238 9.33334 0 10.8257 0 12.6667V14.6667H1.33333V12.6667C1.33333 11.5621 2.22876 10.6667 3.33333 10.6667H8.66667C9.77124 10.6667 10.6667 11.5621 10.6667 12.6667V14.6667H12V12.6667C12 10.8257 10.5076 9.33334 8.66667 9.33334H3.33333Z" fill="#212529"/>
</svg>
