<svg width="24" height="24" viewBox="0 0 24 24" fill="none" xmlns="http://www.w3.org/2000/svg">
<path d="M10.6666 16C10.6666 16.7333 11.2666 17.3333 12 17.3333C12.7333 17.3333 13.3333 16.7333 13.3333 16C13.3333 15.2667 12.7333 14.6667 12 14.6667C11.2666 14.6667 10.6666 15.2667 10.6666 16Z" fill="#212529"/>
<path d="M10.6666 7.99999C10.6666 8.73332 11.2666 9.33332 12 9.33332C12.7333 9.33332 13.3333 8.73332 13.3333 7.99999C13.3333 7.26666 12.7333 6.66666 12 6.66666C11.2666 6.66666 10.6666 7.26666 10.6666 7.99999Z" fill="#212529"/>
<path d="M12 13.3333C11.2666 13.3333 10.6666 12.7333 10.6666 12C10.6666 11.2667 11.2666 10.6667 12 10.6667C12.7333 10.6667 13.3333 11.2667 13.3333 12C13.3333 12.7333 12.7333 13.3333 12 13.3333Z" fill="#212529"/>
</svg>
