<svg width="16" height="16" viewBox="0 0 16 16" fill="none" xmlns="http://www.w3.org/2000/svg">
<path d="M4.52667 14.4061C4.09855 14.5358 3.66667 14.2154 3.66667 13.768V12.6667H2C1.63181 12.6667 1.33334 12.3682 1.33334 12V2.66667C1.33334 2.29848 1.63181 2 2 2H14C14.3682 2 14.6667 2.29848 14.6667 2.66667V8.16933C14.2524 7.8802 13.8016 7.66606 13.3333 7.52693V3.33333H2.66667V11.3333H5V12.8694L7.33611 12.1615C7.3515 12.6086 7.43081 13.054 7.57403 13.4826L4.52667 14.4061Z" fill="#212529"/>
<path fill-rule="evenodd" clip-rule="evenodd" d="M14.399 9.68565C14.4957 9.78587 14.5849 9.89065 14.6667 9.9993C15.649 11.3051 15.5457 13.1683 14.357 14.357C13.0553 15.6588 10.9447 15.6588 9.64298 14.357C9.27497 13.989 9.011 13.5564 8.85107 13.0956C8.7011 12.6636 8.64261 12.2069 8.67559 11.7556C8.73184 10.9857 9.05431 10.2317 9.64298 9.64298C10.6407 8.64522 12.1137 8.41222 13.3333 8.94397C13.7049 9.10599 14.053 9.33899 14.357 9.64298C14.3712 9.65711 14.3851 9.67133 14.399 9.68565ZM13.8856 11.5H10.1144V12.5L13.8856 12.5V11.5Z" fill="#212529"/>
<path d="M8.16933 8V9.33333H4V8H8.16933Z" fill="#212529"/>
<path d="M12 5.33333H4V6.66667H12V5.33333Z" fill="#212529"/>
</svg>
