<svg width="14" height="14" viewBox="0 0 14 14" fill="none" xmlns="http://www.w3.org/2000/svg">
<g clip-path="url(#clip0_1468_7377)">
<path d="M11.6667 6.41671C11.6667 6.82362 11.625 7.22081 11.5457 7.60423L10.8124 8.33755L10.2876 7.81276C10.4256 7.37195 10.5 6.90302 10.5 6.41671C10.5 3.83938 8.41066 1.75004 5.83333 1.75004C3.256 1.75004 1.16667 3.83938 1.16667 6.41671C1.16667 8.99404 3.256 11.0834 5.83333 11.0834C6.63545 11.0834 7.39031 10.881 8.04963 10.5245L8.33751 10.8124L7.02086 12.1291C6.63744 12.2084 6.24025 12.25 5.83333 12.25C2.61167 12.25 0 9.63837 0 6.41671C0 3.19505 2.61167 0.583374 5.83333 0.583374C9.05499 0.583374 11.6667 3.19505 11.6667 6.41671Z" fill="#ADB5BD"/>
<path d="M11.2249 10.4L12.8748 8.75005L13.6998 9.575L12.0498 11.2249L13.6997 12.8748L12.8748 13.6998L11.2249 12.0499L9.57498 13.6998L8.75002 12.8748L10.3999 11.2249L8.75 9.575L9.57496 8.75004L11.2249 10.4Z" fill="#ADB5BD"/>
<path d="M7.89547 7.29171C6.75644 8.43074 4.90971 8.43074 3.77068 7.29171L2.94572 8.11667C4.54036 9.71131 7.12578 9.71131 8.72042 8.11667L7.89547 7.29171Z" fill="#ADB5BD"/>
<path d="M4.08333 6.12504C4.56658 6.12504 4.95833 5.73329 4.95833 5.25004C4.95833 4.76679 4.56658 4.37504 4.08333 4.37504C3.60008 4.37504 3.20833 4.76679 3.20833 5.25004C3.20833 5.73329 3.60008 6.12504 4.08333 6.12504Z" fill="#ADB5BD"/>
<path d="M8.45833 5.25004C8.45833 5.73329 8.06658 6.12504 7.58333 6.12504C7.10008 6.12504 6.70833 5.73329 6.70833 5.25004C6.70833 4.76679 7.10008 4.37504 7.58333 4.37504C8.06658 4.37504 8.45833 4.76679 8.45833 5.25004Z" fill="#ADB5BD"/>
</g>
<defs>
<clipPath id="clip0_1468_7377">
<rect width="14" height="14" fill="white"/>
</clipPath>
</defs>
</svg>
