<svg width="20" height="20" viewBox="0 0 20 20" fill="none" xmlns="http://www.w3.org/2000/svg">
<path d="M10.8332 11.1292C11.5029 10.9273 12.0779 10.4916 12.4533 9.90147C12.8288 9.3113 12.9798 8.6059 12.8788 7.91374C12.7778 7.22159 12.4316 6.58872 11.9032 6.1304C11.3748 5.67208 10.6994 5.4188 9.99987 5.41669C9.32558 5.41664 8.67209 5.65015 8.15053 6.07751C7.62897 6.50488 7.27155 7.09971 7.13904 7.76085L8.77404 8.08835C8.82044 7.85621 8.9318 7.64202 9.09518 7.4707C9.25855 7.29938 9.46722 7.17797 9.69689 7.12061C9.92657 7.06324 10.1678 7.07228 10.3926 7.14666C10.6173 7.22105 10.8163 7.35772 10.9664 7.54078C11.1165 7.72384 11.2115 7.94576 11.2404 8.18072C11.2693 8.41568 11.2309 8.65402 11.1297 8.86801C11.0284 9.08199 10.8685 9.26282 10.6685 9.38946C10.4685 9.5161 10.2366 9.58334 9.99987 9.58335C9.77886 9.58335 9.5669 9.67115 9.41062 9.82743C9.25434 9.98371 9.16654 10.1957 9.16654 10.4167V11.6667H10.8332V11.1292Z" fill="#212529"/>
<path d="M9.16654 12.5V14.1667H10.8332V12.5H9.16654Z" fill="#212529"/>
<path fill-rule="evenodd" clip-rule="evenodd" d="M16.5185 17.4182C17.0321 17.461 17.461 17.0321 17.4182 16.5186L17.2217 14.1611C17.9287 12.9367 18.3333 11.5156 18.3333 10C18.3333 5.39752 14.6025 1.66669 9.99996 1.66669C5.39746 1.66669 1.66663 5.39752 1.66663 10C1.66663 14.6025 5.39746 18.3334 9.99996 18.3334C11.5155 18.3334 12.9366 17.9288 14.1611 17.2218L16.5185 17.4182ZM15.7784 13.3277L15.5175 13.7796L15.6755 15.6755L13.7795 15.5175L13.3277 15.7784C12.3498 16.3431 11.2152 16.6667 9.99996 16.6667C6.31793 16.6667 3.33329 13.682 3.33329 10C3.33329 6.318 6.31793 3.33335 9.99996 3.33335C13.682 3.33335 16.6666 6.318 16.6666 10C16.6666 11.2153 16.343 12.3499 15.7784 13.3277Z" fill="#212529"/>
</svg>
