<svg width="20" height="20" viewBox="0 0 20 20" fill="none" xmlns="http://www.w3.org/2000/svg">
<path d="M12.9459 11.25C11.3187 12.8772 8.68049 12.8772 7.05331 11.25L5.8748 12.4285C8.15286 14.7066 11.8463 14.7066 14.1244 12.4285L12.9459 11.25Z" fill="#212529"/>
<path fill-rule="evenodd" clip-rule="evenodd" d="M18.3333 10C18.3333 14.6024 14.6023 18.3334 9.99996 18.3334C5.39759 18.3334 1.66663 14.6024 1.66663 10C1.66663 5.39765 5.39759 1.66669 9.99996 1.66669C14.6023 1.66669 18.3333 5.39765 18.3333 10ZM16.6666 10C16.6666 13.6819 13.6819 16.6667 9.99996 16.6667C6.31806 16.6667 3.33329 13.6819 3.33329 10C3.33329 6.31812 6.31806 3.33335 9.99996 3.33335C13.6819 3.33335 16.6666 6.31812 16.6666 10Z" fill="#212529"/>
<path d="M8.74996 8.33335C8.74996 9.02371 8.19032 9.58335 7.49996 9.58335C6.8096 9.58335 6.24996 9.02371 6.24996 8.33335C6.24996 7.643 6.8096 7.08335 7.49996 7.08335C8.19032 7.08335 8.74996 7.643 8.74996 8.33335Z" fill="#212529"/>
<path d="M13.75 8.33335C13.75 9.02371 13.1903 9.58335 12.5 9.58335C11.8096 9.58335 11.25 9.02371 11.25 8.33335C11.25 7.643 11.8096 7.08335 12.5 7.08335C13.1903 7.08335 13.75 7.643 13.75 8.33335Z" fill="#212529"/>
</svg>
