<svg width="16" height="16" viewBox="0 0 16 16" fill="none" xmlns="http://www.w3.org/2000/svg">
<path d="M11.5296 3.99998C10.8817 3.4283 10.0999 3.01852 9.24848 2.81357C8.01343 2.51628 6.71282 2.66948 5.58065 3.24561C4.44848 3.82175 3.55907 4.783 3.07243 5.95643C2.58579 7.12985 2.53387 8.43843 2.92601 9.64672C3.31815 10.855 4.12861 11.8837 5.21157 12.5477C6.29454 13.2118 7.57892 13.4675 8.83365 13.269C10.0884 13.0705 11.2311 12.4308 12.0562 11.4649C12.8813 10.499 13.3346 9.27032 13.3346 7.99999H14.6667C14.6667 8.45074 14.621 8.89729 14.532 9.33332C14.3075 10.433 13.8074 11.4657 13.069 12.3301C12.0379 13.5372 10.6099 14.3367 9.04181 14.5848C7.47376 14.8328 5.86865 14.5132 4.51526 13.6834C3.16186 12.8535 2.14902 11.5679 1.65896 10.0579C1.1689 8.54791 1.23378 6.91257 1.84194 5.44612C2.4501 3.97968 3.56161 2.77839 4.9765 2.05839C6.39138 1.33838 8.01677 1.14692 9.56024 1.51846C10.5905 1.76646 11.5392 2.25446 12.3334 2.93375V1.33331H13.6667V5.33331H9.66671V3.99998H11.5296Z" fill="#495057"/>
</svg>
