<svg width="20" height="20" viewBox="0 0 20 20" fill="none" xmlns="http://www.w3.org/2000/svg">
<path d="M10 12.0833C11.1506 12.0833 12.0834 11.1506 12.0834 10C12.0834 8.84941 11.1506 7.91667 10 7.91667C8.84945 7.91667 7.91671 8.84941 7.91671 10C7.91671 11.1506 8.84945 12.0833 10 12.0833Z" fill="#212529"/>
<path fill-rule="evenodd" clip-rule="evenodd" d="M7.99548 1.25C7.35124 1.25 6.82897 1.77226 6.82897 2.41651V2.82221C6.82897 3.64847 5.86587 4.10043 5.23034 3.57241C4.68696 3.12094 3.86757 3.27038 3.51855 3.8846L1.53093 7.38242C1.19852 7.96739 1.43374 8.71155 2.04198 8.9992C2.88572 9.39823 2.88572 10.5987 2.04198 10.9978C1.43374 11.2854 1.19852 12.0296 1.53093 12.6145L3.51854 16.1124C3.86757 16.7266 4.68696 16.876 5.23034 16.4245C5.86587 15.8965 6.82897 16.3485 6.82897 17.1747V17.5833C6.82897 18.2276 7.35134 18.75 7.9957 18.75H12.004C12.6483 18.75 13.1707 18.2276 13.1707 17.5832V17.1749C13.1707 16.3485 14.134 15.8964 14.7697 16.4245C15.3131 16.876 16.1325 16.7266 16.4816 16.1123L18.4692 12.6145C18.8016 12.0296 18.5664 11.2854 17.9581 10.9978C17.1144 10.5987 17.1144 9.39823 17.9581 8.9992C18.5663 8.71155 18.8016 7.96739 18.4692 7.38241L16.4816 3.88463C16.1325 3.2704 15.3131 3.12095 14.7697 3.57242C14.134 4.10055 13.1707 3.64848 13.1707 2.82203V2.41653C13.1707 1.77228 12.6484 1.25 12.0042 1.25H7.99548ZM4.68931 5.19775C6.34304 6.02386 8.42905 4.87974 8.49408 2.91667H11.5056C11.5708 4.87983 13.6569 6.02396 15.3108 5.19775L16.7739 7.77251C15.2869 8.86179 15.2869 11.1352 16.7739 12.2244L15.3108 14.7992C13.6561 13.9726 11.5686 15.1183 11.5055 17.0833H8.49418C8.43121 15.1184 6.3439 13.9727 4.68931 14.7992L3.22622 12.2244C4.7132 11.1352 4.7132 8.86179 3.22622 7.77251L4.68931 5.19775Z" fill="#212529"/>
</svg>
