<svg width="16" height="17" viewBox="0 0 16 17" fill="none" xmlns="http://www.w3.org/2000/svg">
<path fill-rule="evenodd" clip-rule="evenodd" d="M13.1293 2.36352L5.70371 4.75033H3.33333C2.59695 4.75033 2 5.34728 2 6.08366V10.0837C2 10.82 2.59695 11.417 3.33333 11.417H4.66667V13.417C4.66667 14.5216 5.5621 15.417 6.66667 15.417C7.77124 15.417 8.66667 14.5216 8.66667 13.417V12.3694L13.1293 13.8038C13.5597 13.9421 14 13.6211 14 13.1691V2.99821C14 2.54618 13.5597 2.2252 13.1293 2.36352ZM6 10.1117L12.6667 12.2546V3.91275L6 6.05561V10.1117ZM7.33333 11.9408L6 11.5122V13.417C6 13.7852 6.29848 14.0837 6.66667 14.0837C7.03486 14.0837 7.33333 13.7852 7.33333 13.417V11.9408ZM3.33333 6.08366H4.66667V10.0837H3.33333L3.33333 6.08366Z" fill="#212529"/>
</svg>
