<svg width="22" height="22" viewBox="0 0 22 22" fill="none" xmlns="http://www.w3.org/2000/svg">
<path d="M5.50065 7.33333H16.5007V9.16667H5.50065V7.33333Z" fill="#212529"/>
<path d="M11.9173 11H5.50065V12.8333H11.9173V11Z" fill="#212529"/>
<path fill-rule="evenodd" clip-rule="evenodd" d="M6.22482 19.8083C5.63615 19.9867 5.04232 19.5462 5.04232 18.9311V17.4167H2.75065C2.24439 17.4167 1.83398 17.0063 1.83398 16.5V3.66667C1.83398 3.16041 2.24439 2.75 2.75065 2.75H19.2507C19.7569 2.75 20.1673 3.16041 20.1673 3.66667V14.9033C20.1673 15.3071 19.903 15.6634 19.5165 15.7806L6.22482 19.8083ZM6.87565 17.6955L18.334 14.2232V4.58333H3.66732V15.5833H6.87565V17.6955Z" fill="#212529"/>
</svg>
