<svg width="22" height="22" viewBox="0 0 22 22" fill="none" xmlns="http://www.w3.org/2000/svg">
<path d="M10.0839 15.583V13.7497H11.9172V15.583H10.0839Z" fill="#212529"/>
<path d="M13.6994 10.8913C13.2864 11.5405 12.6539 12.0197 11.9172 12.2418V12.833H10.0839V11.458C10.0839 11.2149 10.1805 10.9817 10.3524 10.8098C10.5243 10.6379 10.7574 10.5413 11.0006 10.5413C11.261 10.5413 11.516 10.4674 11.736 10.3281C11.956 10.1888 12.132 9.98984 12.2433 9.75446C12.3547 9.51908 12.397 9.2569 12.3652 8.99845C12.3334 8.73999 12.2288 8.49588 12.0637 8.29451C11.8986 8.09314 11.6797 7.9428 11.4325 7.86098C11.1853 7.77916 10.9199 7.76922 10.6673 7.83232C10.4146 7.89542 10.1851 8.02897 10.0054 8.21742C9.82568 8.40588 9.70318 8.64149 9.65214 8.89684L7.85364 8.53659C7.9994 7.80934 8.39256 7.15502 8.96628 6.68492C9.54 6.21482 10.2588 5.95795 11.0006 5.95801C11.77 5.96033 12.513 6.23894 13.0942 6.74309C13.6755 7.24724 14.0563 7.9434 14.1674 8.70477C14.2785 9.46614 14.1124 10.2421 13.6994 10.8913Z" fill="#212529"/>
<path fill-rule="evenodd" clip-rule="evenodd" d="M11.0007 18.333C15.0507 18.333 18.334 15.0498 18.334 10.9997C18.334 6.94959 15.0507 3.66634 11.0007 3.66634C6.95056 3.66634 3.66732 6.94959 3.66732 10.9997C3.66732 15.0498 6.95056 18.333 11.0007 18.333ZM11.0007 20.1663C16.0633 20.1663 20.1673 16.0623 20.1673 10.9997C20.1673 5.93706 16.0633 1.83301 11.0007 1.83301C5.93804 1.83301 1.83398 5.93706 1.83398 10.9997C1.83398 16.0623 5.93804 20.1663 11.0007 20.1663Z" fill="#212529"/>
</svg>
