<svg width="12" height="12" viewBox="0 0 12 12" fill="none" xmlns="http://www.w3.org/2000/svg">
<path fill-rule="evenodd" clip-rule="evenodd" d="M4.5 6C5.88071 6 7 4.88071 7 3.5C7 2.11929 5.88071 1 4.5 1C3.11929 1 2 2.11929 2 3.5C2 4.88071 3.11929 6 4.5 6ZM4.5 5C5.32843 5 6 4.32843 6 3.5C6 2.67157 5.32843 2 4.5 2C3.67157 2 3 2.67157 3 3.5C3 4.32843 3.67157 5 4.5 5Z" fill="#495057"/>
<path d="M7.5 2C8.32843 2 9 2.67157 9 3.5C9 4.32843 8.32843 5 7.5 5V6C8.88071 6 10 4.88071 10 3.5C10 2.11929 8.88071 1 7.5 1V2Z" fill="#495057"/>
<path d="M12 9.5C12 8.11929 10.8807 7 9.5 7V8C10.3284 8 11 8.67157 11 9.5V11H12V9.5Z" fill="#495057"/>
<path d="M2.5 7C1.11929 7 0 8.11929 0 9.5V11H1V9.5C1 8.67157 1.67157 8 2.5 8H6.5C7.32843 8 8 8.67157 8 9.5V11H9V9.5C9 8.11929 7.88071 7 6.5 7H2.5Z" fill="#495057"/>
</svg>
