<svg width="60" height="36" viewBox="0 0 60 36" fill="none" xmlns="http://www.w3.org/2000/svg">
<path fill-rule="evenodd" clip-rule="evenodd" d="M60 0H0V30H6V35.4L60 30V0ZM47.856 24.0482C44.232 24.0482 41.4 21.7682 41.4 17.9522C41.4 14.5922 43.968 11.8802 47.712 11.8802C51.12 11.8802 53.736 14.3282 53.736 18.4082V19.2962H45.864C46.104 20.0402 46.944 20.7603 48.408 20.7603C49.392 20.7603 50.448 20.4002 51.024 19.9442L52.8 22.6082C51.648 23.5922 49.584 24.0482 47.856 24.0482ZM49.632 16.5602C49.512 16.0562 49.104 15.1682 47.712 15.1682C46.392 15.1682 45.96 16.0322 45.816 16.5602H49.632ZM32.688 24.0002H37.272L41.76 12.0002H37.2L34.968 19.0322L32.76 12.0002H28.2L32.688 24.0002ZM25.08 10.8001C26.4055 10.8001 27.48 9.72563 27.48 8.40015C27.48 7.07466 26.4055 6.00015 25.08 6.00015C23.7545 6.00015 22.68 7.07466 22.68 8.40015C22.68 9.72563 23.7545 10.8001 25.08 10.8001ZM27.24 12.0001V24.0001H22.92V12.0001H27.24ZM21 8.40015C21 9.72563 19.9255 10.8001 18.6 10.8001C17.2745 10.8001 16.2 9.72563 16.2 8.40015C16.2 7.07466 17.2745 6.00015 18.6 6.00015C19.9255 6.00015 21 7.07466 21 8.40015ZM20.76 24.0001V12.0001H16.44V24.0001H20.76ZM7.92001 24.0001H12.24V15.6001H14.52V12.0001H12.24V11.4721C12.24 10.8001 12.696 10.3921 13.344 10.3921C13.656 10.3921 13.992 10.4881 14.256 10.6561L15 7.76328C14.3755 7.434 13.4259 7.20007 12.336 7.20007C9.76801 7.20007 7.92001 8.92807 7.92001 11.3281V12.0001H6.00001V15.6001H7.92001V24.0001Z" fill="#212529"/>
</svg>
