<svg width="24" height="24" viewBox="0 0 24 24" fill="none" xmlns="http://www.w3.org/2000/svg">
<path fill-rule="evenodd" clip-rule="evenodd" d="M12 2C7.85791 2 4.50005 5.35786 4.50005 9.5V14.8253L2.69511 17.4305C2.23563 18.0937 2.71029 19 3.51711 19H20.483C21.2898 19 21.7644 18.0937 21.305 17.4305L19.5 14.8253V9.5C19.5 5.35786 16.1422 2 12 2ZM5.42648 17L6.50005 15.4504V9.5C6.50005 6.46243 8.96248 4 12 4C15.0376 4 17.5 6.46243 17.5 9.5V15.4505L18.5736 17H5.42648Z" fill="#212529"/>
<path d="M12 22C13.1046 22 14 21.1046 14 20H10C10 21.1046 10.8955 22 12 22Z" fill="#212529"/>
</svg>
