<svg width="22" height="22" viewBox="0 0 22 22" fill="none" xmlns="http://www.w3.org/2000/svg">
<path d="M14.2411 12.3747C12.4512 14.1646 9.54924 14.1646 7.75933 12.3747L6.46297 13.671C8.96884 16.1769 13.0316 16.1769 15.5375 13.671L14.2411 12.3747Z" fill="#212529"/>
<path fill-rule="evenodd" clip-rule="evenodd" d="M20.1673 10.9997C20.1673 16.0623 16.0633 20.1663 11.0007 20.1663C5.93804 20.1663 1.83398 16.0623 1.83398 10.9997C1.83398 5.93706 5.93804 1.83301 11.0007 1.83301C16.0633 1.83301 20.1673 5.93706 20.1673 10.9997ZM18.334 10.9997C18.334 15.0498 15.0507 18.333 11.0007 18.333C6.95056 18.333 3.66732 15.0498 3.66732 10.9997C3.66732 6.94959 6.95056 3.66634 11.0007 3.66634C15.0507 3.66634 18.334 6.94959 18.334 10.9997Z" fill="#212529"/>
<path d="M9.62565 9.16634C9.62565 9.92573 9.01004 10.5413 8.25065 10.5413C7.49126 10.5413 6.87565 9.92573 6.87565 9.16634C6.87565 8.40695 7.49126 7.79134 8.25065 7.79134C9.01004 7.79134 9.62565 8.40695 9.62565 9.16634Z" fill="#212529"/>
<path d="M15.1257 9.16634C15.1257 9.92573 14.51 10.5413 13.7507 10.5413C12.9913 10.5413 12.3757 9.92573 12.3757 9.16634C12.3757 8.40695 12.9913 7.79134 13.7507 7.79134C14.51 7.79134 15.1257 8.40695 15.1257 9.16634Z" fill="#212529"/>
</svg>
