<svg width="22" height="22" viewBox="0 0 22 22" fill="none" xmlns="http://www.w3.org/2000/svg">
<path d="M14.2392 12.3747C12.4493 14.1646 9.54728 14.1646 7.75738 12.3747L6.46102 13.671C8.96688 16.1769 13.0297 16.1769 15.5356 13.671L14.2392 12.3747Z" fill="#9966FF"/>
<path fill-rule="evenodd" clip-rule="evenodd" d="M20.1654 10.9997C20.1654 16.0623 16.0613 20.1663 10.9987 20.1663C5.93609 20.1663 1.83203 16.0623 1.83203 10.9997C1.83203 5.93706 5.93609 1.83301 10.9987 1.83301C16.0613 1.83301 20.1654 5.93706 20.1654 10.9997ZM18.332 10.9997C18.332 15.0498 15.0488 18.333 10.9987 18.333C6.94861 18.333 3.66536 15.0498 3.66536 10.9997C3.66536 6.94959 6.94861 3.66634 10.9987 3.66634C15.0488 3.66634 18.332 6.94959 18.332 10.9997Z" fill="#9966FF"/>
<path d="M9.6237 9.16634C9.6237 9.92573 9.00809 10.5413 8.2487 10.5413C7.48931 10.5413 6.8737 9.92573 6.8737 9.16634C6.8737 8.40695 7.48931 7.79134 8.2487 7.79134C9.00809 7.79134 9.6237 8.40695 9.6237 9.16634Z" fill="#9966FF"/>
<path d="M15.1237 9.16634C15.1237 9.92573 14.5081 10.5413 13.7487 10.5413C12.9893 10.5413 12.3737 9.92573 12.3737 9.16634C12.3737 8.40695 12.9893 7.79134 13.7487 7.79134C14.5081 7.79134 15.1237 8.40695 15.1237 9.16634Z" fill="#9966FF"/>
</svg>
