<svg width="22" height="22" viewBox="0 0 22 22" fill="none" xmlns="http://www.w3.org/2000/svg">
<path d="M14.2411 12.3757C12.4512 14.1656 9.54924 14.1656 7.75933 12.3757L6.46297 13.672C8.96884 16.1779 13.0316 16.1779 15.5375 13.672L14.2411 12.3757Z" fill="#DEE2E6"/>
<path fill-rule="evenodd" clip-rule="evenodd" d="M20.1673 11.0007C20.1673 16.0633 16.0633 20.1673 11.0007 20.1673C5.93804 20.1673 1.83398 16.0633 1.83398 11.0007C1.83398 5.93804 5.93804 1.83398 11.0007 1.83398C16.0633 1.83398 20.1673 5.93804 20.1673 11.0007ZM18.334 11.0007C18.334 15.0507 15.0507 18.334 11.0007 18.334C6.95056 18.334 3.66732 15.0507 3.66732 11.0007C3.66732 6.95056 6.95056 3.66732 11.0007 3.66732C15.0507 3.66732 18.334 6.95056 18.334 11.0007Z" fill="#DEE2E6"/>
<path d="M9.62565 9.16732C9.62565 9.92671 9.01004 10.5423 8.25065 10.5423C7.49126 10.5423 6.87565 9.92671 6.87565 9.16732C6.87565 8.40793 7.49126 7.79232 8.25065 7.79232C9.01004 7.79232 9.62565 8.40793 9.62565 9.16732Z" fill="#DEE2E6"/>
<path d="M15.1257 9.16732C15.1257 9.92671 14.51 10.5423 13.7507 10.5423C12.9913 10.5423 12.3757 9.92671 12.3757 9.16732C12.3757 8.40793 12.9913 7.79232 13.7507 7.79232C14.51 7.79232 15.1257 8.40793 15.1257 9.16732Z" fill="#DEE2E6"/>
</svg>
