<svg width="16" height="16" viewBox="0 0 16 16" fill="none" xmlns="http://www.w3.org/2000/svg">
<path fill-rule="evenodd" clip-rule="evenodd" d="M6 8.00065C7.84095 8.00065 9.33333 6.50827 9.33333 4.66732C9.33333 2.82637 7.84095 1.33398 6 1.33398C4.15905 1.33398 2.66667 2.82637 2.66667 4.66732C2.66667 6.50827 4.15905 8.00065 6 8.00065ZM6 6.66732C7.10457 6.66732 8 5.77189 8 4.66732C8 3.56275 7.10457 2.66732 6 2.66732C4.89543 2.66732 4 3.56275 4 4.66732C4 5.77189 4.89543 6.66732 6 6.66732Z" fill="#212529"/>
<path d="M10 2.66732C11.1046 2.66732 12 3.56275 12 4.66732C12 5.77189 11.1046 6.66732 10 6.66732V8.00065C11.8409 8.00065 13.3333 6.50827 13.3333 4.66732C13.3333 2.82637 11.8409 1.33398 10 1.33398V2.66732Z" fill="#212529"/>
<path d="M16 12.6673C16 10.8264 14.5076 9.33398 12.6667 9.33398V10.6673C13.7712 10.6673 14.6667 11.5627 14.6667 12.6673V14.6673H16V12.6673Z" fill="#212529"/>
<path d="M3.33333 9.33398C1.49238 9.33398 0 10.8264 0 12.6673V14.6673H1.33333V12.6673C1.33333 11.5627 2.22876 10.6673 3.33333 10.6673H8.66667C9.77124 10.6673 10.6667 11.5627 10.6667 12.6673V14.6673H12V12.6673C12 10.8264 10.5076 9.33398 8.66667 9.33398H3.33333Z" fill="#212529"/>
</svg>
